<?xml version="1.0" encoding="utf-8"?>
<!-- Generator: Adobe Illustrator 24.1.1, SVG Export Plug-In . SVG Version: 6.00 Build 0)  -->
<svg version="1.1" id="Layer_1" xmlns="http://www.w3.org/2000/svg" xmlns:xlink="http://www.w3.org/1999/xlink" x="0px" y="0px"
	 viewBox="0 0 1102.8 850.5" style="enable-background:new 0 0 1102.8 850.5;" xml:space="preserve">
<style type="text/css">
	.st0{opacity:0.1;}
</style>
<path class="st0" d="M899,350c-2.1,0.7-8,6-10,7s-5,3-5,6s-1,17,0,18s3,8,3,9s4,17,8,18s10,3,16,0s11-8,11-17s-4-24-4-26s-3-13-7-14
	S902,349,899,350z"/>
<path class="st0" d="M988,347c-5.4,3.3-14,6-14,8s-1,19-1,21s-1,8,0,13s1,10,5,14s4,6,8,5s6-1,10-4s9-6,10-10s4-16,3-21s-2-19-3-21
	s1-4-3-5S993,344,988,347z"/>
<path class="st0" d="M832,146c-4.5,0-9-3-10,2s-6,16-8,20s-1,19-1,23s2,6,2,11s0,25,0,28s2,12,9,13s18-1,20-4s5-18,5-24s-2-23-2-27
	s-2-8-1-12s2-12,1-14s-1,3-2,2s-3-7-3-11S839,146,832,146z"/>
<path class="st0" d="M903,152c-3.3,1.3-6,3-6,8s1,25,1,29s0,7-1,9s-4,2-2,5s2,4,4,8s5,14,5,19s-1,2,3,5s13,5,17,1s7-7,8-14
	s2-15,2-18s0-3-1-4s-3-10-3-14s-2-19-3-23s-4-11-7-12S908,150,903,152z"/>
<path class="st0" d="M122,585c2,10,4,24,4,32s6,20,6,25s0,32,0,38s3,66,5,79s-5,57-6,64s-3,21,3,26s25-4,26-8s0-16,0-16s5,12,12,12
	s7-3,7-3s9,3,15,2s11-5,12-5c0,0,9,9,15,10s13-5,14-5c0,0,1,2,12-2s12-3,12-12s1-18,5-20s8-60,2-73s-13-31-12-39s6-40,6-41
	s5-25,8-31s7-13,11-17s4-8,5-9s7,0,16,1s47,4,58,2s23-4,45,0s21,7,35,7s19-1,28-1s29,4,50,2s32-3,39-3s17,1,19,2s13,0,19,3
	s17,5,19,5s12,0,15,4s18,16,21,26s1,44,2,51s7,12,7,16s-5,4-3,13s9,43,11,50s8,36,15,46s13,18,24,18s17-9,18-12c0,0,23-1,25-10
	c0,0,1-18,7-19s-1,5,11,2s21-7,28-10s9,4,14-10s2-17,2-25s-4-9-2-21s3-42,3-47s0-23,3-29s-4-20,1-28s4-33,2-43s-3-20-2-27
	s-1-24-1-25s4-34,8-39s6-19,6-19s0-1,8,3s27,14,42,14s17-2,40,0s28,2,43,2s24,0,36-1s14,0,34-7s19-8,28-14s26-18,31-31s17-37,13-58
	s-8-41-14-46s-6-5-6-5s-16-12-33-19c-31.9-13.2-49-21-61-22s-35-5-45-5s-27,0-33,0s-16,12-33,13s-38,6-45,8s-48,47-48,55
	s-13,46,8,87c0,0-9,23-12,31s-7,17-8,37s1,49,0,58s2,35,2,40c0,4.7-6,14.5-6.9,17.4c0.2-5.9,0.7-20.3-0.1-23.4c-1-4,2-20,0-23
	s-14-9-20-12s-17,0-19,7s-11,18-10,29s-9,74-8,108c0,5,2,9-2,9s-4-6-4-9s0-20-2-26s-4-9-4-11s1-46-7-59s-12-29-23-36s-47-26-72-27
	c0,0,6-6,4-15s-7-10-7-10s5-22,6-36s-1-18-6-22s-22-44-28-48s-17-7-23-7s-10,1-13,1s-6-1-16,0s-34,9-40,11s-28,1-37-2s-32-14-40-14
	s-26-7-38-3s-30,24-35,31s-11,40-11,53s7,46,12,55c0,0-21-1-35-5s-17-3-22,2s-7,13-13,18s-20,24-22,30s-10,42-11,50s-1,42-3,43
	s0,1,0,1s-2,4-3-7s-5-15-6-37s-12-28-15-28s-9-1-13,1s-13,11-13,16c0,0-9-58-12-72c-2.9-13.7-16.4-54.4-16-84.2
	c1.1-0.3,2.1-0.3,3,0.2c5,3,18,7,25,10s27,2,37,2s14-5,27-18s21-30,24-37s3-15,6-20s-3-14-4-23s-7-18-7-26s-6-15-7-16s0-5,2-6
	s13-5,22-7s14-9,20-16s9-21,9-24s1-5,2-6s2,0,6,0s33,3,41,3s31-3,46-5s41-6,43-7s18-4,23-3s22-2,29-3s24-1,26-1s0,1,0,2s-8,9-10,12
	s-1,7-1,17s4,29,5,33s7,7,8,8s7,3,11,3s4,0,6,0s5,0,11,0s13-3,15-3s4,0,4,1s5,23,5,27s5,11,7,14s7,25,9,27s8,4,11,6s5,5,7,7
	s7,5,10,5s18,5,30,7s15-1,16-3s13-9,15-12s5-8,11-10s10-13,10-20s-4-16-5-19s-2-8-2-11s0-41,0-47s1-17,1-23s3-6,5-10s0-10,0-18
	s-11-24-11-24s-5-9-5-12s2-4,2-8s-5-6-5-11s2-12,4-16s11-36,11-39s5-5,6-5s2,2,2,2s3-2,7-2s13-6,13-9s4-6,6-17s0-12,0-15s-2-2-5-2
	s-3,1-12-2s-5-15-5-15s2,1,6,1s14,8,17,8s7,0,11-1s13-3,20-4s7-4,10-5s3-4,4-9s0-5-2-11s-1-6-3-9s-3-8-5-12s0-9,0-9s4,0,10,6
	s2,4,3,8s1,19,0,24s0,5,1,13s6,9,13,9s5-1,13-3s27-10,33-14s11-6,19-6s14,5,19,7s9,6,15,6s7,0,12-3s6-3,8-8s2-5,3-13s0-5-2-10
	s0-4,0-10s0-6,4-6s3,6,5,9s6,10,8,14s6,10,7,13s0,3,8,24s0,0,4,3s4,2,7,7s3,2,5,2s6,0,8,0s25-14,26-15s4-1,4,0s-1,2-1,5s-4,10-6,14
	s0,1,0,4s2,9,2,12s6,9,14,12s10-1,15-8s6-7,7-13s5-13,10-37s-2-43-3-50s-11-16-13-17s-8-2-10-1s-11,8-13,10s-8,21-8,23s-8,12-10,14
	s-6,4-8,6s-2,0-5-2s-2-6-3-9s-3-11-4-14s-2-2-4-6s-12-22-13-24S925,7,922,6s-6-3-9-3s-13,2-14,2s-10,8-13,12s-3,7-4,7s-5,4-5,5
	s-5,11-6,13s0,0-7-1s-18,0-19,0s-7,3-9,3s-8,6-10,7s-17,8-20,8s-1-1-1-1s-1-18-1-19s-9-14-11-18s-6-6-9-8s-14-9-20-11s-3-2-6-2
	s-8,1-10,1s-7,5-9,5s-6,7-6,7s-12,21-12,24s0,5,0,7s2,12,3,14s2,2,0,2s-7-4-12-6s-11-3-13-4s-2-2-3-5s-3-6-5-7s-10-2-14-2s-7,6-9,7
	s-5,11-6,14s0,11,0,16s2,25,2,27s0,5,0,6s7,14,7,18s-2,7-4,14s-15,35-17,38s-7,28-9,30s-9,9-11,12s-5,4-8,6s-15,10-18,12s-39,7-39,7
	c-5,0-22-1-27-2s-11-3-17-4s-12-1-18-1s-27,4-33,3s-36,3-45,6s-49,8-55,9s-39,2-48,2s-14-2-25-4s-18,0-29-3c-0.3-0.1-0.7-0.2-1-0.3
	c-10.5-3-18.2-6.7-23-6.7c-5,0-21,4-26,6s-7,8-16,10s-16,2-29,5s-19,10-24,10s-14,8-19,12s-19,20-31,40s-23,71-23,84s-5,30-7,33
	s-9,26-14,48s-21,74-22,80S3,634,4,640s-4,14-4,19s7,8,7,11s4,6,10,6s9-3,9-2s2,3,2,4s9,1,12-1s5-4,6-5s3-9,3-9c4,2,16,4,21,0
	s5-13,4-16s-3-5-6-9s0-7,0-9s1-7,2-11s16-41,19-48s9-26,9-34c0-5.3,5.3-14.1,8.8-19.5l0.2,0.5 M641,400c1-1,2-1.8,2-4c0-1,5,2,6,3
	s-3,3-6,5s-2,0-3-1S640,401,641,400z M602,372c2,0,2,7,4,9s2,12,2,12c-8-4-12-23-12-23S600,372,602,372z M532,307c0,0,0,0,1-1
	s8,5,9,7s6,2,6,3s-15,2-16,1s-1-6-1-9L532,307z M238,305c1,0,9-8,11-9s8-8,10-8s2,3,2,5s-2,5-3,5s-9,5-12,6s-12,4-12,2
	S237,305,238,305z M164,442c1-2,11,6,12,7s6,0,8,0s3,3,3,3c-12,0-24-6-25-7S163.6,442.9,164,442z M149,422c2-4,4-2,5-2s2,5,3,8
	s1,5-2,3s-1,2-7,4s-8-2-8-4S148.4,423.3,149,422z M112,415c1,0,1-9,2-9s3,5,3,6s1,3,1,4s-2.6,2-4,2C112,418,111,415,112,415z
	 M350,539c0,0-2-7-5-13s-3-15-4-17s0-3,0-7s2-19,2-19c1,2,1,23,2,28s5,20,5,25C350,537.7,350,538.6,350,539z M378,528c0,0-1,2-1,4
	s-3,4-3,2s-1-3-2-5s-0.7-5.3,0-6c1-1,3,0,5,1S378,528,378,528z M454,496c-1,1-4-1-6-1s-8.7-3.3-8-4c1-1,12,2,14,3S455,495,454,496z
	 M457,497c-1,0,0-2,0-2c0-1,3,1,3,2S458,497,457,497z M496,495c-1,0-2-2-2-3s0-4,2-4s2,1,2,3C498,491,497,495,496,495z M526,517
	c0,0-3,1-4,0s4-4,5-4s4-2,4-1S528,516,526,517z M1055,416c-1,11-10,15-16,18s-15,12-18,14s-7,1-12,1s-22,1-31,3s-81-5-83-5
	s-9,2-12,0s-12-2-25-6s-27-18-37-37s11-51,11-53s9-5,13-5s22-4,25-5s10-6,14-7s8,2,15,0s17-16,17-16c7,0,22,3,31,3s23,7,32,7
	s35,10,50,18s19,10,19,10s0,0,9,15S1056,405,1055,416z"/>
</svg>
