<?xml version="1.0" encoding="utf-8"?>
<!-- Generator: Adobe Illustrator 24.1.2, SVG Export Plug-In . SVG Version: 6.00 Build 0)  -->
<svg version="1.1" id="Layer_1" xmlns="http://www.w3.org/2000/svg" xmlns:xlink="http://www.w3.org/1999/xlink" x="0px" y="0px"
	 viewBox="0 0 1920 650" style="enable-background:new 0 0 1920 650;" xml:space="preserve">
<style type="text/css">
	.st0{fill:none;}
	.st1{fill:#5A5A5A;}
	.st2{fill:#585858;}
	.st3{fill:#5E5E5E;}
	.st4{fill:#606060;}
	.st5{fill:#555555;}
	.st6{fill:#636363;}
	.st7{fill:#656565;}
	.st8{fill:#686868;}
	.st9{fill:#6A6A6A;}
	.st10{fill:#6B6B6B;}
	.st11{fill:#6E6E6E;}
	.st12{fill:#707070;}
	.st13{fill:#737373;}
	.st14{fill:#757575;}
	.st15{fill:#797979;}
	.st16{fill:#7B7B7B;}
	.st17{fill:#535353;}
	.st18{fill:#4F4F4F;}
	.st19{fill:#4D4D4D;}
	.st20{fill:#4A4A4A;}
	.st21{fill:#484848;}
	.st22{fill:#454545;}
	.st23{fill:#434343;}
	.st24{fill:#3F3F3F;}
	.st25{fill:#404040;}
	.st26{fill:#3D3D3D;}
	.st27{fill:#3A3A3A;}
	.st28{fill:#383838;}
	.st29{fill:#353535;}
	.st30{fill:#333333;}
	.st31{fill:#303030;}
	.st32{fill:#2E2E2E;}
	.st33{fill:#2F2F2F;}
	.st34{fill:#2D2D2D;}
	.st35{fill:#2A2A2A;}
	.st36{fill:#282828;}
	.st37{fill:#252525;}
	.st38{fill:#232323;}
</style>
<path class="st0" d="z"/>
<polygon class="st1" points="82.9,-200 0,-117.2 48.5,-117.2 "/>
<polygon class="st1" points="48.5,-117.2 82.9,-82.9 82.9,-200 "/>
<polygon class="st1" points="48.5,-117.2 0,-117.2 82.9,-82.9 "/>
<polygon class="st1" points="82.9,-82.9 0,-117.2 34.3,-82.9 "/>
<polygon class="st2" points="0,-117.2 0,0 34.3,-82.9 "/>
<polygon class="st1" points="34.3,-82.9 0,0 82.9,-82.9 "/>
<polygon class="st1" points="82.9,-82.9 0,-0.1 48.5,-0.1 "/>
<polygon class="st1" points="48.5,-0.1 82.9,34.2 82.9,-82.9 "/>
<polygon class="st1" points="48.5,-0.1 0,-0.1 82.9,34.2 "/>
<polygon class="st1" points="82.9,34.2 0,-0.1 34.3,34.2 "/>
<polygon class="st1" points="0,-0.1 0,117.1 34.3,34.2 "/>
<polygon class="st1" points="34.3,34.2 0,117.1 82.9,34.2 "/>
<polygon class="st3" points="82.9,34.2 0,117 48.5,117 "/>
<polygon class="st3" points="48.5,117 82.9,151.3 82.9,34.2 "/>
<polygon class="st3" points="48.5,117 0,117 82.9,151.3 "/>
<polygon class="st3" points="82.9,151.3 0,117 34.3,151.3 "/>
<polygon class="st3" points="0,117 0,234.2 34.3,151.3 "/>
<polygon class="st3" points="34.3,151.3 0,234.2 82.9,151.3 "/>
<polygon class="st3" points="82.9,151.3 0,234.1 48.5,234.1 "/>
<polygon class="st4" points="48.5,234.1 82.9,268.4 82.9,151.3 "/>
<polygon class="st4" points="48.5,234.1 0,234.1 82.9,268.4 "/>
<polygon class="st3" points="82.9,268.4 0,234.1 34.3,268.4 "/>
<polygon class="st3" points="0,234.1 0,351.3 34.3,268.4 "/>
<polygon class="st3" points="34.3,268.4 0,351.3 82.9,268.4 "/>
<polygon class="st4" points="82.9,268.4 0,351.2 48.5,351.2 "/>
<polygon class="st4" points="48.5,351.2 82.9,385.5 82.9,268.4 "/>
<polygon class="st3" points="48.5,351.2 0,351.2 82.9,385.5 "/>
<polygon class="st3" points="82.9,385.5 0,351.2 34.3,385.5 "/>
<polygon class="st3" points="0,351.2 0,468.4 34.3,385.5 "/>
<polygon class="st3" points="34.3,385.5 0,468.4 82.9,385.5 "/>
<polygon class="st3" points="82.9,385.5 0,468.3 48.5,468.3 "/>
<polygon class="st3" points="48.5,468.3 82.9,502.6 82.9,385.5 "/>
<polygon class="st3" points="48.5,468.3 0,468.3 82.9,502.6 "/>
<polygon class="st1" points="82.9,502.6 0,468.3 34.3,502.6 "/>
<polygon class="st1" points="0,468.3 0,585.5 34.3,502.6 "/>
<polygon class="st1" points="34.3,502.6 0,585.5 82.9,502.6 "/>
<polygon class="st1" points="82.9,502.6 0,585.4 48.5,585.4 "/>
<polygon class="st1" points="48.5,585.4 82.9,619.7 82.9,502.6 "/>
<polygon class="st2" points="48.5,585.4 0,585.4 82.9,619.7 "/>
<polygon class="st2" points="82.9,619.7 0,585.4 34.3,619.7 "/>
<polygon class="st5" points="0,585.4 0,702.6 34.3,619.7 "/>
<polygon class="st5" points="34.3,619.7 0,702.6 82.9,619.7 "/>
<polygon class="st5" points="82.9,619.7 0,702.5 48.5,702.5 "/>
<polygon class="st2" points="48.5,702.5 82.9,736.8 82.9,619.7 "/>
<polygon class="st5" points="48.5,702.5 0,702.5 82.9,736.8 "/>
<polygon class="st5" points="82.9,736.8 0,702.5 34.3,736.8 "/>
<polygon class="st5" points="0,702.5 0,819.7 34.3,736.8 "/>
<polygon class="st5" points="34.3,736.8 0,819.7 82.9,736.8 "/>
<polygon class="st3" points="165.5,-165.8 82.6,-83 131.1,-83 "/>
<polygon class="st4" points="131.1,-83 165.5,-48.7 165.5,-165.8 "/>
<polygon class="st3" points="131.1,-83 82.6,-83 165.5,-48.7 "/>
<polygon class="st3" points="165.5,-48.7 82.6,-83 116.9,-48.7 "/>
<polygon class="st3" points="82.6,-83 82.6,34.2 116.9,-48.7 "/>
<polygon class="st3" points="116.9,-48.7 82.6,34.2 165.5,-48.7 "/>
<polygon class="st3" points="165.5,-48.7 82.6,34.1 131.1,34.1 "/>
<polygon class="st4" points="131.1,34.1 165.5,68.4 165.5,-48.7 "/>
<polygon class="st4" points="131.1,34.1 82.6,34.1 165.5,68.4 "/>
<polygon class="st4" points="165.5,68.4 82.6,34.1 116.9,68.4 "/>
<polygon class="st4" points="82.6,34.1 82.6,151.3 116.9,68.4 "/>
<polygon class="st6" points="116.9,68.4 82.6,151.3 165.5,68.4 "/>
<polygon class="st6" points="165.5,68.4 82.6,151.2 131.1,151.2 "/>
<polygon class="st7" points="131.1,151.2 165.5,185.5 165.5,68.4 "/>
<polygon class="st6" points="131.1,151.2 82.6,151.2 165.5,185.5 "/>
<polygon class="st6" points="165.5,185.5 82.6,151.2 116.9,185.5 "/>
<polygon class="st6" points="82.6,151.2 82.6,268.4 116.9,185.5 "/>
<polygon class="st6" points="116.9,185.5 82.6,268.4 165.5,185.5 "/>
<polygon class="st7" points="165.5,185.5 82.6,268.3 131.1,268.3 "/>
<polygon class="st7" points="131.1,268.3 165.5,302.6 165.5,185.5 "/>
<polygon class="st7" points="131.1,268.3 82.6,268.3 165.5,302.6 "/>
<polygon class="st7" points="165.5,302.6 82.6,268.3 116.9,302.6 "/>
<polygon class="st6" points="82.6,268.3 82.6,385.5 116.9,302.6 "/>
<polygon class="st6" points="116.9,302.6 82.6,385.5 165.5,302.6 "/>
<polygon class="st6" points="165.5,302.6 82.6,385.4 131.1,385.4 "/>
<polygon class="st7" points="131.1,385.4 165.5,419.7 165.5,302.6 "/>
<polygon class="st6" points="131.1,385.4 82.6,385.4 165.5,419.7 "/>
<polygon class="st6" points="165.5,419.7 82.6,385.4 116.9,419.7 "/>
<polygon class="st4" points="82.6,385.4 82.6,502.6 116.9,419.7 "/>
<polygon class="st6" points="116.9,419.7 82.6,502.6 165.5,419.7 "/>
<polygon class="st4" points="165.5,419.7 82.6,502.5 131.1,502.5 "/>
<polygon class="st6" points="131.1,502.5 165.5,536.8 165.5,419.7 "/>
<polygon class="st4" points="131.1,502.5 82.6,502.5 165.5,536.8 "/>
<polygon class="st4" points="165.5,536.8 82.6,502.5 116.9,536.8 "/>
<polygon class="st3" points="82.6,502.5 82.6,619.7 116.9,536.8 "/>
<polygon class="st3" points="116.9,536.8 82.6,619.7 165.5,536.8 "/>
<polygon class="st3" points="165.5,536.8 82.6,619.6 131.1,619.6 "/>
<polygon class="st3" points="131.1,619.6 165.5,653.9 165.5,536.8 "/>
<polygon class="st1" points="131.1,619.6 82.6,619.6 165.5,653.9 "/>
<polygon class="st1" points="165.5,653.9 82.6,619.6 116.9,653.9 "/>
<polygon class="st2" points="82.6,619.6 82.6,736.8 116.9,653.9 "/>
<polygon class="st1" points="116.9,653.9 82.6,736.8 165.5,653.9 "/>
<polygon class="st1" points="165.5,653.9 82.6,736.7 131.1,736.7 "/>
<polygon class="st1" points="131.1,736.7 165.5,771 165.5,653.9 "/>
<polygon class="st1" points="131.1,736.7 82.6,736.7 165.5,771 "/>
<polygon class="st1" points="165.5,771 82.6,736.7 116.9,771 "/>
<polygon class="st2" points="82.6,736.7 82.6,853.9 116.9,771 "/>
<polygon class="st1" points="116.9,771 82.6,853.9 165.5,771 "/>
<polygon class="st6" points="248.1,-131.6 165.2,-48.8 213.7,-48.8 "/>
<polygon class="st6" points="213.7,-48.8 248.1,-14.5 248.1,-131.6 "/>
<polygon class="st6" points="213.7,-48.8 165.2,-48.8 248.1,-14.5 "/>
<polygon class="st6" points="248.1,-14.5 165.2,-48.8 199.5,-14.5 "/>
<polygon class="st6" points="165.2,-48.8 165.2,68.4 199.5,-14.5 "/>
<polygon class="st6" points="199.5,-14.5 165.2,68.4 248.1,-14.5 "/>
<polygon class="st6" points="248.1,-14.5 165.2,68.3 213.7,68.3 "/>
<polygon class="st7" points="213.7,68.3 248.1,102.6 248.1,-14.5 "/>
<polygon class="st7" points="213.7,68.3 165.2,68.3 248.1,102.6 "/>
<polygon class="st7" points="248.1,102.6 165.2,68.3 199.5,102.6 "/>
<polygon class="st7" points="165.2,68.3 165.2,185.5 199.5,102.6 "/>
<polygon class="st7" points="199.5,102.6 165.2,185.5 248.1,102.6 "/>
<polygon class="st8" points="248.1,102.6 165.2,185.4 213.7,185.4 "/>
<polygon class="st9" points="213.7,185.4 248.1,219.7 248.1,102.6 "/>
<polygon class="st8" points="213.7,185.4 165.2,185.4 248.1,219.7 "/>
<polygon class="st8" points="248.1,219.7 165.2,185.4 199.5,219.7 "/>
<polygon class="st8" points="165.2,185.4 165.2,302.6 199.5,219.7 "/>
<polygon class="st8" points="199.5,219.7 165.2,302.6 248.1,219.7 "/>
<polygon class="st9" points="248.1,219.7 165.2,302.5 213.7,302.5 "/>
<polygon class="st9" points="213.7,302.5 248.1,336.8 248.1,219.7 "/>
<polygon class="st9" points="213.7,302.5 165.2,302.5 248.1,336.8 "/>
<polygon class="st8" points="248.1,336.8 165.2,302.5 199.5,336.8 "/>
<polygon class="st8" points="165.2,302.5 165.2,419.7 199.5,336.8 "/>
<polygon class="st8" points="199.5,336.8 165.2,419.7 248.1,336.8 "/>
<polygon class="st8" points="248.1,336.8 165.2,419.6 213.7,419.6 "/>
<polygon class="st8" points="213.7,419.6 248.1,453.9 248.1,336.8 "/>
<polygon class="st8" points="213.7,419.6 165.2,419.6 248.1,453.9 "/>
<polygon class="st7" points="248.1,453.9 165.2,419.6 199.5,453.9 "/>
<polygon class="st7" points="165.2,419.6 165.2,536.8 199.5,453.9 "/>
<polygon class="st7" points="199.5,453.9 165.2,536.8 248.1,453.9 "/>
<polygon class="st7" points="248.1,453.9 165.2,536.7 213.7,536.7 "/>
<polygon class="st7" points="213.7,536.7 248.1,571 248.1,453.9 "/>
<polygon class="st6" points="213.7,536.7 165.2,536.7 248.1,571 "/>
<polygon class="st6" points="248.1,571 165.2,536.7 199.5,571 "/>
<polygon class="st4" points="165.2,536.7 165.2,653.9 199.5,571 "/>
<polygon class="st4" points="199.5,571 165.2,653.9 248.1,571 "/>
<polygon class="st3" points="248.1,571 165.2,653.8 213.7,653.8 "/>
<polygon class="st4" points="213.7,653.8 248.1,688.1 248.1,571 "/>
<polygon class="st3" points="213.7,653.8 165.2,653.8 248.1,688.1 "/>
<polygon class="st3" points="248.1,688.1 165.2,653.8 199.5,688.1 "/>
<polygon class="st3" points="165.2,653.8 165.2,771 199.5,688.1 "/>
<polygon class="st3" points="199.5,688.1 165.2,771 248.1,688.1 "/>
<polygon class="st3" points="248.1,688.1 165.2,770.9 213.7,770.9 "/>
<polygon class="st3" points="213.7,770.9 248.1,805.2 248.1,688.1 "/>
<polygon class="st3" points="213.7,770.9 165.2,770.9 248.1,805.2 "/>
<polygon class="st3" points="248.1,805.2 165.2,770.9 199.5,805.2 "/>
<polygon class="st3" points="165.2,770.9 165.2,888.1 199.5,805.2 "/>
<polygon class="st3" points="199.5,805.2 165.2,888.1 248.1,805.2 "/>
<polygon class="st7" points="330.7,-97.4 247.8,-14.6 296.3,-14.6 "/>
<polygon class="st7" points="296.3,-14.6 330.7,19.7 330.7,-97.4 "/>
<polygon class="st7" points="296.3,-14.6 247.8,-14.6 330.7,19.7 "/>
<polygon class="st7" points="330.7,19.7 247.8,-14.6 282.1,19.7 "/>
<polygon class="st7" points="247.8,-14.6 247.8,102.6 282.1,19.7 "/>
<polygon class="st8" points="282.1,19.7 247.8,102.6 330.7,19.7 "/>
<polygon class="st8" points="330.7,19.7 247.8,102.5 296.3,102.5 "/>
<polygon class="st9" points="296.3,102.5 330.7,136.8 330.7,19.7 "/>
<polygon class="st9" points="296.3,102.5 247.8,102.5 330.7,136.8 "/>
<polygon class="st9" points="330.7,136.8 247.8,102.5 282.1,136.8 "/>
<polygon class="st9" points="247.8,102.5 247.8,219.7 282.1,136.8 "/>
<polygon class="st10" points="282.1,136.8 247.8,219.7 330.7,136.8 "/>
<polygon class="st11" points="330.7,136.8 247.8,219.6 296.3,219.6 "/>
<polygon class="st12" points="296.3,219.6 330.7,253.9 330.7,136.8 "/>
<polygon class="st11" points="296.3,219.6 247.8,219.6 330.7,253.9 "/>
<polygon class="st11" points="330.7,253.9 247.8,219.6 282.1,253.9 "/>
<polygon class="st11" points="247.8,219.6 247.8,336.8 282.1,253.9 "/>
<polygon class="st11" points="282.1,253.9 247.8,336.8 330.7,253.9 "/>
<polygon class="st11" points="330.7,253.9 247.8,336.7 296.3,336.7 "/>
<polygon class="st12" points="296.3,336.7 330.7,371 330.7,253.9 "/>
<polygon class="st11" points="296.3,336.7 247.8,336.7 330.7,371 "/>
<polygon class="st11" points="330.7,371 247.8,336.7 282.1,371 "/>
<polygon class="st9" points="247.8,336.7 247.8,453.9 282.1,371 "/>
<polygon class="st10" points="282.1,371 247.8,453.9 330.7,371 "/>
<polygon class="st9" points="330.7,371 247.8,453.8 296.3,453.8 "/>
<polygon class="st11" points="296.3,453.8 330.7,488.1 330.7,371 "/>
<polygon class="st9" points="296.3,453.8 247.8,453.8 330.7,488.1 "/>
<polygon class="st8" points="330.7,488.1 247.8,453.8 282.1,488.1 "/>
<polygon class="st7" points="247.8,453.8 247.8,571 282.1,488.1 "/>
<polygon class="st8" points="282.1,488.1 247.8,571 330.7,488.1 "/>
<polygon class="st7" points="330.7,488.1 247.8,570.9 296.3,570.9 "/>
<polygon class="st7" points="296.3,570.9 330.7,605.2 330.7,488.1 "/>
<polygon class="st7" points="296.3,570.9 247.8,570.9 330.7,605.2 "/>
<polygon class="st6" points="330.7,605.2 247.8,570.9 282.1,605.2 "/>
<polygon class="st4" points="247.8,570.9 247.8,688.1 282.1,605.2 "/>
<polygon class="st4" points="282.1,605.2 247.8,688.1 330.7,605.2 "/>
<polygon class="st4" points="330.7,605.2 247.8,688 296.3,688 "/>
<polygon class="st4" points="296.3,688 330.7,722.3 330.7,605.2 "/>
<polygon class="st4" points="296.3,688 247.8,688 330.7,722.3 "/>
<polygon class="st4" points="330.7,722.3 247.8,688 282.1,722.3 "/>
<polygon class="st4" points="247.8,688 247.8,805.2 282.1,722.3 "/>
<polygon class="st4" points="282.1,722.3 247.8,805.2 330.7,722.3 "/>
<polygon class="st4" points="330.7,722.3 247.8,805.1 296.3,805.1 "/>
<polygon class="st4" points="296.3,805.1 330.7,839.4 330.7,722.3 "/>
<polygon class="st4" points="296.3,805.1 247.8,805.1 330.7,839.4 "/>
<polygon class="st4" points="330.7,839.4 247.8,805.1 282.1,839.4 "/>
<polygon class="st4" points="247.8,805.1 247.8,922.3 282.1,839.4 "/>
<polygon class="st4" points="282.1,839.4 247.8,922.3 330.7,839.4 "/>
<polygon class="st8" points="413.3,-180.3 330.4,-97.5 378.9,-97.5 "/>
<polygon class="st8" points="378.9,-97.5 413.3,-63.2 413.3,-180.3 "/>
<polygon class="st8" points="378.9,-97.5 330.4,-97.5 413.3,-63.2 "/>
<polygon class="st8" points="413.3,-63.2 330.4,-97.5 364.7,-63.2 "/>
<polygon class="st8" points="330.4,-97.5 330.4,19.7 364.7,-63.2 "/>
<polygon class="st8" points="364.7,-63.2 330.4,19.7 413.3,-63.2 "/>
<polygon class="st8" points="413.3,-63.2 330.4,19.6 378.9,19.6 "/>
<polygon class="st8" points="378.9,19.6 413.3,53.9 413.3,-63.2 "/>
<polygon class="st9" points="378.9,19.6 330.4,19.6 413.3,53.9 "/>
<polygon class="st9" points="413.3,53.9 330.4,19.6 364.7,53.9 "/>
<polygon class="st9" points="330.4,19.6 330.4,136.8 364.7,53.9 "/>
<polygon class="st11" points="364.7,53.9 330.4,136.8 413.3,53.9 "/>
<polygon class="st11" points="413.3,53.9 330.4,136.7 378.9,136.7 "/>
<polygon class="st12" points="378.9,136.7 413.3,171 413.3,53.9 "/>
<polygon class="st12" points="378.9,136.7 330.4,136.7 413.3,171 "/>
<polygon class="st12" points="413.3,171 330.4,136.7 364.7,171 "/>
<polygon class="st12" points="330.4,136.7 330.4,253.9 364.7,171 "/>
<polygon class="st13" points="364.7,171 330.4,253.9 413.3,171 "/>
<polygon class="st13" points="413.3,171 330.4,253.8 378.9,253.8 "/>
<polygon class="st14" points="378.9,253.8 413.3,288.1 413.3,171 "/>
<polygon class="st13" points="378.9,253.8 330.4,253.8 413.3,288.1 "/>
<polygon class="st13" points="413.3,288.1 330.4,253.8 364.7,288.1 "/>
<polygon class="st12" points="330.4,253.8 330.4,371 364.7,288.1 "/>
<polygon class="st13" points="364.7,288.1 330.4,371 413.3,288.1 "/>
<polygon class="st13" points="413.3,288.1 330.4,370.9 378.9,370.9 "/>
<polygon class="st13" points="378.9,370.9 413.3,405.2 413.3,288.1 "/>
<polygon class="st12" points="378.9,370.9 330.4,370.9 413.3,405.2 "/>
<polygon class="st12" points="413.3,405.2 330.4,370.9 364.7,405.2 "/>
<polygon class="st11" points="330.4,370.9 330.4,488.1 364.7,405.2 "/>
<polygon class="st12" points="364.7,405.2 330.4,488.1 413.3,405.2 "/>
<polygon class="st11" points="413.3,405.2 330.4,488 378.9,488 "/>
<polygon class="st11" points="378.9,488 413.3,522.3 413.3,405.2 "/>
<polygon class="st9" points="378.9,488 330.4,488 413.3,522.3 "/>
<polygon class="st9" points="413.3,522.3 330.4,488 364.7,522.3 "/>
<polygon class="st8" points="330.4,488 330.4,605.2 364.7,522.3 "/>
<polygon class="st8" points="364.7,522.3 330.4,605.2 413.3,522.3 "/>
<polygon class="st7" points="413.3,522.3 330.4,605.1 378.9,605.1 "/>
<polygon class="st8" points="378.9,605.1 413.3,639.4 413.3,522.3 "/>
<polygon class="st7" points="378.9,605.1 330.4,605.1 413.3,639.4 "/>
<polygon class="st6" points="413.3,639.4 330.4,605.1 364.7,639.4 "/>
<polygon class="st6" points="330.4,605.1 330.4,722.3 364.7,639.4 "/>
<polygon class="st6" points="364.7,639.4 330.4,722.3 413.3,639.4 "/>
<polygon class="st6" points="413.3,639.4 330.4,722.2 378.9,722.2 "/>
<polygon class="st6" points="378.9,722.2 413.3,756.5 413.3,639.4 "/>
<polygon class="st6" points="378.9,722.2 330.4,722.2 413.3,756.5 "/>
<polygon class="st6" points="413.3,756.5 330.4,722.2 364.7,756.5 "/>
<polygon class="st6" points="330.4,722.2 330.4,839.4 364.7,756.5 "/>
<polygon class="st6" points="364.7,756.5 330.4,839.4 413.3,756.5 "/>
<polygon class="st9" points="495.9,-146.1 413,-63.3 461.5,-63.3 "/>
<polygon class="st9" points="461.5,-63.3 495.9,-29 495.9,-146.1 "/>
<polygon class="st9" points="461.5,-63.3 413,-63.3 495.9,-29 "/>
<polygon class="st9" points="495.9,-29 413,-63.3 447.3,-29 "/>
<polygon class="st9" points="413,-63.3 413,53.9 447.3,-29 "/>
<polygon class="st9" points="447.3,-29 413,53.9 495.9,-29 "/>
<polygon class="st10" points="495.9,-29 413,53.8 461.5,53.8 "/>
<polygon class="st11" points="461.5,53.8 495.9,88.1 495.9,-29 "/>
<polygon class="st11" points="461.5,53.8 413,53.8 495.9,88.1 "/>
<polygon class="st11" points="495.9,88.1 413,53.8 447.3,88.1 "/>
<polygon class="st12" points="413,53.8 413,171 447.3,88.1 "/>
<polygon class="st12" points="447.3,88.1 413,171 495.9,88.1 "/>
<polygon class="st13" points="495.9,88.1 413,170.9 461.5,170.9 "/>
<polygon class="st14" points="461.5,170.9 495.9,205.2 495.9,88.1 "/>
<polygon class="st14" points="461.5,170.9 413,170.9 495.9,205.2 "/>
<polygon class="st14" points="495.9,205.2 413,170.9 447.3,205.2 "/>
<polygon class="st14" points="413,170.9 413,288.1 447.3,205.2 "/>
<polygon class="st15" points="447.3,205.2 413,288.1 495.9,205.2 "/>
<polygon class="st15" points="495.9,205.2 413,288 461.5,288 "/>
<polygon class="st16" points="461.5,288 495.9,322.3 495.9,205.2 "/>
<polygon class="st15" points="461.5,288 413,288 495.9,322.3 "/>
<polygon class="st15" points="495.9,322.3 413,288 447.3,322.3 "/>
<polygon class="st14" points="413,288 413,405.2 447.3,322.3 "/>
<polygon class="st14" points="447.3,322.3 413,405.2 495.9,322.3 "/>
<polygon class="st14" points="495.9,322.3 413,405.1 461.5,405.1 "/>
<polygon class="st14" points="461.5,405.1 495.9,439.4 495.9,322.3 "/>
<polygon class="st13" points="461.5,405.1 413,405.1 495.9,439.4 "/>
<polygon class="st13" points="495.9,439.4 413,405.1 447.3,439.4 "/>
<polygon class="st12" points="413,405.1 413,522.3 447.3,439.4 "/>
<polygon class="st12" points="447.3,439.4 413,522.3 495.9,439.4 "/>
<polygon class="st11" points="495.9,439.4 413,522.2 461.5,522.2 "/>
<polygon class="st11" points="461.5,522.2 495.9,556.5 495.9,439.4 "/>
<polygon class="st9" points="461.5,522.2 413,522.2 495.9,556.5 "/>
<polygon class="st9" points="495.9,556.5 413,522.2 447.3,556.5 "/>
<polygon class="st8" points="413,522.2 413,639.4 447.3,556.5 "/>
<polygon class="st8" points="447.3,556.5 413,639.4 495.9,556.5 "/>
<polygon class="st7" points="495.9,556.5 413,639.3 461.5,639.3 "/>
<polygon class="st7" points="461.5,639.3 495.9,673.6 495.9,556.5 "/>
<polygon class="st6" points="461.5,639.3 413,639.3 495.9,673.6 "/>
<polygon class="st6" points="495.9,673.6 413,639.3 447.3,673.6 "/>
<polygon class="st6" points="413,639.3 413,756.5 447.3,673.6 "/>
<polygon class="st6" points="447.3,673.6 413,756.5 495.9,673.6 "/>
<polygon class="st6" points="495.9,673.6 413,756.4 461.5,756.4 "/>
<polygon class="st7" points="461.5,756.4 495.9,790.7 495.9,673.6 "/>
<polygon class="st6" points="461.5,756.4 413,756.4 495.9,790.7 "/>
<polygon class="st6" points="495.9,790.7 413,756.4 447.3,790.7 "/>
<polygon class="st6" points="413,756.4 413,873.6 447.3,790.7 "/>
<polygon class="st6" points="447.3,790.7 413,873.6 495.9,790.7 "/>
<polygon class="st9" points="578.5,-111.9 495.6,-29.1 544.1,-29.1 "/>
<polygon class="st9" points="544.1,-29.1 578.5,5.2 578.5,-111.9 "/>
<polygon class="st9" points="544.1,-29.1 495.6,-29.1 578.5,5.2 "/>
<polygon class="st9" points="578.5,5.2 495.6,-29.1 529.9,5.2 "/>
<polygon class="st10" points="495.6,-29.1 495.6,88.1 529.9,5.2 "/>
<polygon class="st11" points="529.9,5.2 495.6,88.1 578.5,5.2 "/>
<polygon class="st11" points="578.5,5.2 495.6,88 544.1,88 "/>
<polygon class="st11" points="544.1,88 578.5,122.3 578.5,5.2 "/>
<polygon class="st12" points="544.1,88 495.6,88 578.5,122.3 "/>
<polygon class="st13" points="578.5,122.3 495.6,88 529.9,122.3 "/>
<polygon class="st13" points="495.6,88 495.6,205.2 529.9,122.3 "/>
<polygon class="st14" points="529.9,122.3 495.6,205.2 578.5,122.3 "/>
<polygon class="st14" points="578.5,122.3 495.6,205.1 544.1,205.1 "/>
<polygon class="st14" points="544.1,205.1 578.5,239.4 578.5,122.3 "/>
<polygon class="st15" points="544.1,205.1 495.6,205.1 578.5,239.4 "/>
<polygon class="st15" points="578.5,239.4 495.6,205.1 529.9,239.4 "/>
<polygon class="st16" points="495.6,205.1 495.6,322.3 529.9,239.4 "/>
<polygon class="st16" points="529.9,239.4 495.6,322.3 578.5,239.4 "/>
<polygon class="st16" points="578.5,239.4 495.6,322.2 544.1,322.2 "/>
<polygon class="st16" points="544.1,322.2 578.5,356.5 578.5,239.4 "/>
<polygon class="st15" points="544.1,322.2 495.6,322.2 578.5,356.5 "/>
<polygon class="st15" points="578.5,356.5 495.6,322.2 529.9,356.5 "/>
<polygon class="st14" points="495.6,322.2 495.6,439.4 529.9,356.5 "/>
<polygon class="st14" points="529.9,356.5 495.6,439.4 578.5,356.5 "/>
<polygon class="st13" points="578.5,356.5 495.6,439.3 544.1,439.3 "/>
<polygon class="st13" points="544.1,439.3 578.5,473.6 578.5,356.5 "/>
<polygon class="st12" points="544.1,439.3 495.6,439.3 578.5,473.6 "/>
<polygon class="st12" points="578.5,473.6 495.6,439.3 529.9,473.6 "/>
<polygon class="st11" points="495.6,439.3 495.6,556.5 529.9,473.6 "/>
<polygon class="st11" points="529.9,473.6 495.6,556.5 578.5,473.6 "/>
<polygon class="st10" points="578.5,473.6 495.6,556.4 544.1,556.4 "/>
<polygon class="st9" points="544.1,556.4 578.5,590.7 578.5,473.6 "/>
<polygon class="st9" points="544.1,556.4 495.6,556.4 578.5,590.7 "/>
<polygon class="st8" points="578.5,590.7 495.6,556.4 529.9,590.7 "/>
<polygon class="st8" points="495.6,556.4 495.6,673.6 529.9,590.7 "/>
<polygon class="st7" points="529.9,590.7 495.6,673.6 578.5,590.7 "/>
<polygon class="st7" points="578.5,590.7 495.6,673.5 544.1,673.5 "/>
<polygon class="st7" points="544.1,673.5 578.5,707.8 578.5,590.7 "/>
<polygon class="st7" points="544.1,673.5 495.6,673.5 578.5,707.8 "/>
<polygon class="st7" points="578.5,707.8 495.6,673.5 529.9,707.8 "/>
<polygon class="st7" points="495.6,673.5 495.6,790.7 529.9,707.8 "/>
<polygon class="st7" points="529.9,707.8 495.6,790.7 578.5,707.8 "/>
<polygon class="st7" points="578.5,707.8 495.6,790.6 544.1,790.6 "/>
<polygon class="st7" points="544.1,790.6 578.5,824.9 578.5,707.8 "/>
<polygon class="st7" points="544.1,790.6 495.6,790.6 578.5,824.9 "/>
<polygon class="st7" points="578.5,824.9 495.6,790.6 529.9,824.9 "/>
<polygon class="st7" points="495.6,790.6 495.6,907.8 529.9,824.9 "/>
<polygon class="st7" points="529.9,824.9 495.6,907.8 578.5,824.9 "/>
<polygon class="st9" points="661.1,-194.8 578.2,-112 626.7,-112 "/>
<polygon class="st8" points="626.7,-112 661.1,-77.7 661.1,-194.8 "/>
<polygon class="st9" points="626.7,-112 578.2,-112 661.1,-77.7 "/>
<polygon class="st9" points="661.1,-77.7 578.2,-112 612.5,-77.7 "/>
<polygon class="st9" points="578.2,-112 578.2,5.2 612.5,-77.7 "/>
<polygon class="st9" points="612.5,-77.7 578.2,5.2 661.1,-77.7 "/>
<polygon class="st9" points="661.1,-77.7 578.2,5.1 626.7,5.1 "/>
<polygon class="st8" points="626.7,5.1 661.1,39.4 661.1,-77.7 "/>
<polygon class="st9" points="626.7,5.1 578.2,5.1 661.1,39.4 "/>
<polygon class="st9" points="661.1,39.4 578.2,5.1 612.5,39.4 "/>
<polygon class="st11" points="578.2,5.1 578.2,122.3 612.5,39.4 "/>
<polygon class="st11" points="612.5,39.4 578.2,122.3 661.1,39.4 "/>
<polygon class="st12" points="661.1,39.4 578.2,122.2 626.7,122.2 "/>
<polygon class="st12" points="626.7,122.2 661.1,156.5 661.1,39.4 "/>
<polygon class="st13" points="626.7,122.2 578.2,122.2 661.1,156.5 "/>
<polygon class="st13" points="661.1,156.5 578.2,122.2 612.5,156.5 "/>
<polygon class="st14" points="578.2,122.2 578.2,239.4 612.5,156.5 "/>
<polygon class="st14" points="612.5,156.5 578.2,239.4 661.1,156.5 "/>
<polygon class="st14" points="661.1,156.5 578.2,239.3 626.7,239.3 "/>
<polygon class="st13" points="626.7,239.3 661.1,273.6 661.1,156.5 "/>
<polygon class="st14" points="626.7,239.3 578.2,239.3 661.1,273.6 "/>
<polygon class="st15" points="661.1,273.6 578.2,239.3 612.5,273.6 "/>
<polygon class="st15" points="578.2,239.3 578.2,356.5 612.5,273.6 "/>
<polygon class="st14" points="612.5,273.6 578.2,356.5 661.1,273.6 "/>
<polygon class="st14" points="661.1,273.6 578.2,356.4 626.7,356.4 "/>
<polygon class="st13" points="626.7,356.4 661.1,390.7 661.1,273.6 "/>
<polygon class="st14" points="626.7,356.4 578.2,356.4 661.1,390.7 "/>
<polygon class="st13" points="661.1,390.7 578.2,356.4 612.5,390.7 "/>
<polygon class="st13" points="578.2,356.4 578.2,473.6 612.5,390.7 "/>
<polygon class="st13" points="612.5,390.7 578.2,473.6 661.1,390.7 "/>
<polygon class="st12" points="661.1,390.7 578.2,473.5 626.7,473.5 "/>
<polygon class="st11" points="626.7,473.5 661.1,507.8 661.1,390.7 "/>
<polygon class="st11" points="626.7,473.5 578.2,473.5 661.1,507.8 "/>
<polygon class="st11" points="661.1,507.8 578.2,473.5 612.5,507.8 "/>
<polygon class="st10" points="578.2,473.5 578.2,590.7 612.5,507.8 "/>
<polygon class="st9" points="612.5,507.8 578.2,590.7 661.1,507.8 "/>
<polygon class="st8" points="661.1,507.8 578.2,590.6 626.7,590.6 "/>
<polygon class="st8" points="626.7,590.6 661.1,624.9 661.1,507.8 "/>
<polygon class="st7" points="626.7,590.6 578.2,590.6 661.1,624.9 "/>
<polygon class="st7" points="661.1,624.9 578.2,590.6 612.5,624.9 "/>
<polygon class="st7" points="578.2,590.6 578.2,707.8 612.5,624.9 "/>
<polygon class="st6" points="612.5,624.9 578.2,707.8 661.1,624.9 "/>
<polygon class="st6" points="661.1,624.9 578.2,707.7 626.7,707.7 "/>
<polygon class="st6" points="626.7,707.7 661.1,742 661.1,624.9 "/>
<polygon class="st6" points="626.7,707.7 578.2,707.7 661.1,742 "/>
<polygon class="st6" points="661.1,742 578.2,707.7 612.5,742 "/>
<polygon class="st6" points="578.2,707.7 578.2,824.9 612.5,742 "/>
<polygon class="st6" points="612.5,742 578.2,824.9 661.1,742 "/>
<polygon class="st8" points="743.7,-160.6 660.8,-77.8 709.3,-77.8 "/>
<polygon class="st7" points="709.3,-77.8 743.7,-43.5 743.7,-160.6 "/>
<polygon class="st8" points="709.3,-77.8 660.8,-77.8 743.7,-43.5 "/>
<polygon class="st8" points="743.7,-43.5 660.8,-77.8 695.1,-43.5 "/>
<polygon class="st8" points="660.8,-77.8 660.8,39.4 695.1,-43.5 "/>
<polygon class="st8" points="695.1,-43.5 660.8,39.4 743.7,-43.5 "/>
<polygon class="st8" points="743.7,-43.5 660.8,39.3 709.3,39.3 "/>
<polygon class="st8" points="709.3,39.3 743.7,73.6 743.7,-43.5 "/>
<polygon class="st9" points="709.3,39.3 660.8,39.3 743.7,73.6 "/>
<polygon class="st9" points="743.7,73.6 660.8,39.3 695.1,73.6 "/>
<polygon class="st11" points="660.8,39.3 660.8,156.5 695.1,73.6 "/>
<polygon class="st11" points="695.1,73.6 660.8,156.5 743.7,73.6 "/>
<polygon class="st11" points="743.7,73.6 660.8,156.4 709.3,156.4 "/>
<polygon class="st11" points="709.3,156.4 743.7,190.7 743.7,73.6 "/>
<polygon class="st12" points="709.3,156.4 660.8,156.4 743.7,190.7 "/>
<polygon class="st12" points="743.7,190.7 660.8,156.4 695.1,190.7 "/>
<polygon class="st13" points="660.8,156.4 660.8,273.6 695.1,190.7 "/>
<polygon class="st13" points="695.1,190.7 660.8,273.6 743.7,190.7 "/>
<polygon class="st12" points="743.7,190.7 660.8,273.5 709.3,273.5 "/>
<polygon class="st12" points="709.3,273.5 743.7,307.8 743.7,190.7 "/>
<polygon class="st13" points="709.3,273.5 660.8,273.5 743.7,307.8 "/>
<polygon class="st13" points="743.7,307.8 660.8,273.5 695.1,307.8 "/>
<polygon class="st13" points="660.8,273.5 660.8,390.7 695.1,307.8 "/>
<polygon class="st13" points="695.1,307.8 660.8,390.7 743.7,307.8 "/>
<polygon class="st12" points="743.7,307.8 660.8,390.6 709.3,390.6 "/>
<polygon class="st11" points="709.3,390.6 743.7,424.9 743.7,307.8 "/>
<polygon class="st12" points="709.3,390.6 660.8,390.6 743.7,424.9 "/>
<polygon class="st12" points="743.7,424.9 660.8,390.6 695.1,424.9 "/>
<polygon class="st11" points="660.8,390.6 660.8,507.8 695.1,424.9 "/>
<polygon class="st11" points="695.1,424.9 660.8,507.8 743.7,424.9 "/>
<polygon class="st9" points="743.7,424.9 660.8,507.7 709.3,507.7 "/>
<polygon class="st9" points="709.3,507.7 743.7,542 743.7,424.9 "/>
<polygon class="st9" points="709.3,507.7 660.8,507.7 743.7,542 "/>
<polygon class="st8" points="743.7,542 660.8,507.7 695.1,542 "/>
<polygon class="st8" points="660.8,507.7 660.8,624.9 695.1,542 "/>
<polygon class="st7" points="695.1,542 660.8,624.9 743.7,542 "/>
<polygon class="st7" points="743.7,542 660.8,624.8 709.3,624.8 "/>
<polygon class="st6" points="709.3,624.8 743.7,659.1 743.7,542 "/>
<polygon class="st6" points="709.3,624.8 660.8,624.8 743.7,659.1 "/>
<polygon class="st6" points="743.7,659.1 660.8,624.8 695.1,659.1 "/>
<polygon class="st6" points="660.8,624.8 660.8,742 695.1,659.1 "/>
<polygon class="st6" points="695.1,659.1 660.8,742 743.7,659.1 "/>
<polygon class="st6" points="743.7,659.1 660.8,741.9 709.3,741.9 "/>
<polygon class="st6" points="709.3,741.9 743.7,776.2 743.7,659.1 "/>
<polygon class="st6" points="709.3,741.9 660.8,741.9 743.7,776.2 "/>
<polygon class="st6" points="743.7,776.2 660.8,741.9 695.1,776.2 "/>
<polygon class="st6" points="660.8,741.9 660.8,859.1 695.1,776.2 "/>
<polygon class="st6" points="695.1,776.2 660.8,859.1 743.7,776.2 "/>
<polygon class="st7" points="826.3,-126.4 743.4,-43.6 791.9,-43.6 "/>
<polygon class="st6" points="791.9,-43.6 826.3,-9.3 826.3,-126.4 "/>
<polygon class="st7" points="791.9,-43.6 743.4,-43.6 826.3,-9.3 "/>
<polygon class="st7" points="826.3,-9.3 743.4,-43.6 777.7,-9.3 "/>
<polygon class="st7" points="743.4,-43.6 743.4,73.6 777.7,-9.3 "/>
<polygon class="st7" points="777.7,-9.3 743.4,73.6 826.3,-9.3 "/>
<polygon class="st7" points="826.3,-9.3 743.4,73.5 791.9,73.5 "/>
<polygon class="st7" points="791.9,73.5 826.3,107.8 826.3,-9.3 "/>
<polygon class="st8" points="791.9,73.5 743.4,73.5 826.3,107.8 "/>
<polygon class="st8" points="826.3,107.8 743.4,73.5 777.7,107.8 "/>
<polygon class="st9" points="743.4,73.5 743.4,190.7 777.7,107.8 "/>
<polygon class="st9" points="777.7,107.8 743.4,190.7 826.3,107.8 "/>
<polygon class="st9" points="826.3,107.8 743.4,190.6 791.9,190.6 "/>
<polygon class="st9" points="791.9,190.6 826.3,224.9 826.3,107.8 "/>
<polygon class="st9" points="791.9,190.6 743.4,190.6 826.3,224.9 "/>
<polygon class="st11" points="826.3,224.9 743.4,190.6 777.7,224.9 "/>
<polygon class="st11" points="743.4,190.6 743.4,307.8 777.7,224.9 "/>
<polygon class="st11" points="777.7,224.9 743.4,307.8 826.3,224.9 "/>
<polygon class="st11" points="826.3,224.9 743.4,307.7 791.9,307.7 "/>
<polygon class="st9" points="791.9,307.7 826.3,342 826.3,224.9 "/>
<polygon class="st11" points="791.9,307.7 743.4,307.7 826.3,342 "/>
<polygon class="st11" points="826.3,342 743.4,307.7 777.7,342 "/>
<polygon class="st11" points="743.4,307.7 743.4,424.9 777.7,342 "/>
<polygon class="st10" points="777.7,342 743.4,424.9 826.3,342 "/>
<polygon class="st9" points="826.3,342 743.4,424.8 791.9,424.8 "/>
<polygon class="st8" points="791.9,424.8 826.3,459.1 826.3,342 "/>
<polygon class="st9" points="791.9,424.8 743.4,424.8 826.3,459.1 "/>
<polygon class="st9" points="826.3,459.1 743.4,424.8 777.7,459.1 "/>
<polygon class="st9" points="743.4,424.8 743.4,542 777.7,459.1 "/>
<polygon class="st8" points="777.7,459.1 743.4,542 826.3,459.1 "/>
<polygon class="st7" points="826.3,459.1 743.4,541.9 791.9,541.9 "/>
<polygon class="st7" points="791.9,541.9 826.3,576.2 826.3,459.1 "/>
<polygon class="st7" points="791.9,541.9 743.4,541.9 826.3,576.2 "/>
<polygon class="st7" points="826.3,576.2 743.4,541.9 777.7,576.2 "/>
<polygon class="st6" points="743.4,541.9 743.4,659.1 777.7,576.2 "/>
<polygon class="st6" points="777.7,576.2 743.4,659.1 826.3,576.2 "/>
<polygon class="st4" points="826.3,576.2 743.4,659 791.9,659 "/>
<polygon class="st3" points="791.9,659 826.3,693.3 826.3,576.2 "/>
<polygon class="st4" points="791.9,659 743.4,659 826.3,693.3 "/>
<polygon class="st4" points="826.3,693.3 743.4,659 777.7,693.3 "/>
<polygon class="st4" points="743.4,659 743.4,776.2 777.7,693.3 "/>
<polygon class="st4" points="777.7,693.3 743.4,776.2 826.3,693.3 "/>
<polygon class="st4" points="826.3,693.3 743.4,776.1 791.9,776.1 "/>
<polygon class="st3" points="791.9,776.1 826.3,810.4 826.3,693.3 "/>
<polygon class="st4" points="791.9,776.1 743.4,776.1 826.3,810.4 "/>
<polygon class="st4" points="826.3,810.4 743.4,776.1 777.7,810.4 "/>
<polygon class="st4" points="743.4,776.1 743.4,893.3 777.7,810.4 "/>
<polygon class="st4" points="777.7,810.4 743.4,893.3 826.3,810.4 "/>
<polygon class="st4" points="908.9,-92.2 826,-9.4 874.5,-9.4 "/>
<polygon class="st4" points="874.5,-9.4 908.9,24.9 908.9,-92.2 "/>
<polygon class="st6" points="874.5,-9.4 826,-9.4 908.9,24.9 "/>
<polygon class="st6" points="908.9,24.9 826,-9.4 860.3,24.9 "/>
<polygon class="st7" points="826,-9.4 826,107.8 860.3,24.9 "/>
<polygon class="st6" points="860.3,24.9 826,107.8 908.9,24.9 "/>
<polygon class="st7" points="908.9,24.9 826,107.7 874.5,107.7 "/>
<polygon class="st6" points="874.5,107.7 908.9,142 908.9,24.9 "/>
<polygon class="st7" points="874.5,107.7 826,107.7 908.9,142 "/>
<polygon class="st7" points="908.9,142 826,107.7 860.3,142 "/>
<polygon class="st8" points="826,107.7 826,224.9 860.3,142 "/>
<polygon class="st7" points="860.3,142 826,224.9 908.9,142 "/>
<polygon class="st8" points="908.9,142 826,224.8 874.5,224.8 "/>
<polygon class="st7" points="874.5,224.8 908.9,259.1 908.9,142 "/>
<polygon class="st8" points="874.5,224.8 826,224.8 908.9,259.1 "/>
<polygon class="st8" points="908.9,259.1 826,224.8 860.3,259.1 "/>
<polygon class="st9" points="826,224.8 826,342 860.3,259.1 "/>
<polygon class="st8" points="860.3,259.1 826,342 908.9,259.1 "/>
<polygon class="st8" points="908.9,259.1 826,341.9 874.5,341.9 "/>
<polygon class="st7" points="874.5,341.9 908.9,376.2 908.9,259.1 "/>
<polygon class="st8" points="874.5,341.9 826,341.9 908.9,376.2 "/>
<polygon class="st8" points="908.9,376.2 826,341.9 860.3,376.2 "/>
<polygon class="st8" points="826,341.9 826,459.1 860.3,376.2 "/>
<polygon class="st7" points="860.3,376.2 826,459.1 908.9,376.2 "/>
<polygon class="st7" points="908.9,376.2 826,459 874.5,459 "/>
<polygon class="st6" points="874.5,459 908.9,493.3 908.9,376.2 "/>
<polygon class="st7" points="874.5,459 826,459 908.9,493.3 "/>
<polygon class="st6" points="908.9,493.3 826,459 860.3,493.3 "/>
<polygon class="st7" points="826,459 826,576.2 860.3,493.3 "/>
<polygon class="st6" points="860.3,493.3 826,576.2 908.9,493.3 "/>
<polygon class="st4" points="908.9,493.3 826,576.1 874.5,576.1 "/>
<polygon class="st4" points="874.5,576.1 908.9,610.4 908.9,493.3 "/>
<polygon class="st4" points="874.5,576.1 826,576.1 908.9,610.4 "/>
<polygon class="st4" points="908.9,610.4 826,576.1 860.3,610.4 "/>
<polygon class="st3" points="826,576.1 826,693.3 860.3,610.4 "/>
<polygon class="st3" points="860.3,610.4 826,693.3 908.9,610.4 "/>
<polygon class="st3" points="908.9,610.4 826,693.2 874.5,693.2 "/>
<polygon class="st1" points="874.5,693.2 908.9,727.5 908.9,610.4 "/>
<polygon class="st3" points="874.5,693.2 826,693.2 908.9,727.5 "/>
<polygon class="st3" points="908.9,727.5 826,693.2 860.3,727.5 "/>
<polygon class="st3" points="826,693.2 826,810.4 860.3,727.5 "/>
<polygon class="st3" points="860.3,727.5 826,810.4 908.9,727.5 "/>
<polygon class="st3" points="908.9,727.5 826,810.3 874.5,810.3 "/>
<polygon class="st1" points="874.5,810.3 908.9,844.6 908.9,727.5 "/>
<polygon class="st3" points="874.5,810.3 826,810.3 908.9,844.6 "/>
<polygon class="st3" points="908.9,844.6 826,810.3 860.3,844.6 "/>
<polygon class="st3" points="826,810.3 826,927.5 860.3,844.6 "/>
<polygon class="st3" points="860.3,844.6 826,927.5 908.9,844.6 "/>
<polygon class="st3" points="991.5,-175.1 908.6,-92.3 957.1,-92.3 "/>
<polygon class="st1" points="957.1,-92.3 991.5,-58 991.5,-175.1 "/>
<polygon class="st3" points="957.1,-92.3 908.6,-92.3 991.5,-58 "/>
<polygon class="st3" points="991.5,-58 908.6,-92.3 942.9,-58 "/>
<polygon class="st3" points="908.6,-92.3 908.6,24.9 942.9,-58 "/>
<polygon class="st3" points="942.9,-58 908.6,24.9 991.5,-58 "/>
<polygon class="st3" points="991.5,-58 908.6,24.8 957.1,24.8 "/>
<polygon class="st1" points="957.1,24.8 991.5,59.1 991.5,-58 "/>
<polygon class="st3" points="957.1,24.8 908.6,24.8 991.5,59.1 "/>
<polygon class="st3" points="991.5,59.1 908.6,24.8 942.9,59.1 "/>
<polygon class="st4" points="908.6,24.8 908.6,142 942.9,59.1 "/>
<polygon class="st4" points="942.9,59.1 908.6,142 991.5,59.1 "/>
<polygon class="st4" points="991.5,59.1 908.6,141.9 957.1,141.9 "/>
<polygon class="st4" points="957.1,141.9 991.5,176.2 991.5,59.1 "/>
<polygon class="st4" points="957.1,141.9 908.6,141.9 991.5,176.2 "/>
<polygon class="st6" points="991.5,176.2 908.6,141.9 942.9,176.2 "/>
<polygon class="st6" points="908.6,141.9 908.6,259.1 942.9,176.2 "/>
<polygon class="st6" points="942.9,176.2 908.6,259.1 991.5,176.2 "/>
<polygon class="st6" points="991.5,176.2 908.6,259 957.1,259 "/>
<polygon class="st4" points="957.1,259 991.5,293.3 991.5,176.2 "/>
<polygon class="st6" points="957.1,259 908.6,259 991.5,293.3 "/>
<polygon class="st6" points="991.5,293.3 908.6,259 942.9,293.3 "/>
<polygon class="st7" points="908.6,259 908.6,376.2 942.9,293.3 "/>
<polygon class="st6" points="942.9,293.3 908.6,376.2 991.5,293.3 "/>
<polygon class="st6" points="991.5,293.3 908.6,376.1 957.1,376.1 "/>
<polygon class="st4" points="957.1,376.1 991.5,410.4 991.5,293.3 "/>
<polygon class="st6" points="957.1,376.1 908.6,376.1 991.5,410.4 "/>
<polygon class="st6" points="991.5,410.4 908.6,376.1 942.9,410.4 "/>
<polygon class="st6" points="908.6,376.1 908.6,493.3 942.9,410.4 "/>
<polygon class="st4" points="942.9,410.4 908.6,493.3 991.5,410.4 "/>
<polygon class="st4" points="991.5,410.4 908.6,493.2 957.1,493.2 "/>
<polygon class="st3" points="957.1,493.2 991.5,527.5 991.5,410.4 "/>
<polygon class="st3" points="957.1,493.2 908.6,493.2 991.5,527.5 "/>
<polygon class="st3" points="991.5,527.5 908.6,493.2 942.9,527.5 "/>
<polygon class="st3" points="908.6,493.2 908.6,610.4 942.9,527.5 "/>
<polygon class="st3" points="942.9,527.5 908.6,610.4 991.5,527.5 "/>
<polygon class="st1" points="991.5,527.5 908.6,610.3 957.1,610.3 "/>
<polygon class="st1" points="957.1,610.3 991.5,644.6 991.5,527.5 "/>
<polygon class="st1" points="957.1,610.3 908.6,610.3 991.5,644.6 "/>
<polygon class="st1" points="991.5,644.6 908.6,610.3 942.9,644.6 "/>
<polygon class="st1" points="908.6,610.3 908.6,727.5 942.9,644.6 "/>
<polygon class="st2" points="942.9,644.6 908.6,727.5 991.5,644.6 "/>
<polygon class="st2" points="991.5,644.6 908.6,727.4 957.1,727.4 "/>
<polygon class="st2" points="957.1,727.4 991.5,761.7 991.5,644.6 "/>
<polygon class="st2" points="957.1,727.4 908.6,727.4 991.5,761.7 "/>
<polygon class="st2" points="991.5,761.7 908.6,727.4 942.9,761.7 "/>
<polygon class="st1" points="908.6,727.4 908.6,844.6 942.9,761.7 "/>
<polygon class="st2" points="942.9,761.7 908.6,844.6 991.5,761.7 "/>
<polygon class="st2" points="1074.1,-140.9 991.2,-58.1 1039.7,-58.1 "/>
<polygon class="st2" points="1039.7,-58.1 1074.1,-23.8 1074.1,-140.9 "/>
<polygon class="st2" points="1039.7,-58.1 991.2,-58.1 1074.1,-23.8 "/>
<polygon class="st2" points="1074.1,-23.8 991.2,-58.1 1025.5,-23.8 "/>
<polygon class="st1" points="991.2,-58.1 991.2,59.1 1025.5,-23.8 "/>
<polygon class="st2" points="1025.5,-23.8 991.2,59.1 1074.1,-23.8 "/>
<polygon class="st1" points="1074.1,-23.8 991.2,59 1039.7,59 "/>
<polygon class="st2" points="1039.7,59 1074.1,93.3 1074.1,-23.8 "/>
<polygon class="st1" points="1039.7,59 991.2,59 1074.1,93.3 "/>
<polygon class="st1" points="1074.1,93.3 991.2,59 1025.5,93.3 "/>
<polygon class="st3" points="991.2,59 991.2,176.2 1025.5,93.3 "/>
<polygon class="st3" points="1025.5,93.3 991.2,176.2 1074.1,93.3 "/>
<polygon class="st3" points="1074.1,93.3 991.2,176.1 1039.7,176.1 "/>
<polygon class="st1" points="1039.7,176.1 1074.1,210.4 1074.1,93.3 "/>
<polygon class="st3" points="1039.7,176.1 991.2,176.1 1074.1,210.4 "/>
<polygon class="st3" points="1074.1,210.4 991.2,176.1 1025.5,210.4 "/>
<polygon class="st4" points="991.2,176.1 991.2,293.3 1025.5,210.4 "/>
<polygon class="st3" points="1025.5,210.4 991.2,293.3 1074.1,210.4 "/>
<polygon class="st3" points="1074.1,210.4 991.2,293.2 1039.7,293.2 "/>
<polygon class="st3" points="1039.7,293.2 1074.1,327.5 1074.1,210.4 "/>
<polygon class="st3" points="1039.7,293.2 991.2,293.2 1074.1,327.5 "/>
<polygon class="st3" points="1074.1,327.5 991.2,293.2 1025.5,327.5 "/>
<polygon class="st4" points="991.2,293.2 991.2,410.4 1025.5,327.5 "/>
<polygon class="st3" points="1025.5,327.5 991.2,410.4 1074.1,327.5 "/>
<polygon class="st3" points="1074.1,327.5 991.2,410.3 1039.7,410.3 "/>
<polygon class="st1" points="1039.7,410.3 1074.1,444.6 1074.1,327.5 "/>
<polygon class="st3" points="1039.7,410.3 991.2,410.3 1074.1,444.6 "/>
<polygon class="st3" points="1074.1,444.6 991.2,410.3 1025.5,444.6 "/>
<polygon class="st3" points="991.2,410.3 991.2,527.5 1025.5,444.6 "/>
<polygon class="st1" points="1025.5,444.6 991.2,527.5 1074.1,444.6 "/>
<polygon class="st1" points="1074.1,444.6 991.2,527.4 1039.7,527.4 "/>
<polygon class="st2" points="1039.7,527.4 1074.1,561.7 1074.1,444.6 "/>
<polygon class="st2" points="1039.7,527.4 991.2,527.4 1074.1,561.7 "/>
<polygon class="st2" points="1074.1,561.7 991.2,527.4 1025.5,561.7 "/>
<polygon class="st2" points="991.2,527.4 991.2,644.6 1025.5,561.7 "/>
<polygon class="st2" points="1025.5,561.7 991.2,644.6 1074.1,561.7 "/>
<polygon class="st5" points="1074.1,561.7 991.2,644.5 1039.7,644.5 "/>
<polygon class="st5" points="1039.7,644.5 1074.1,678.8 1074.1,561.7 "/>
<polygon class="st5" points="1039.7,644.5 991.2,644.5 1074.1,678.8 "/>
<polygon class="st5" points="1074.1,678.8 991.2,644.5 1025.5,678.8 "/>
<polygon class="st5" points="991.2,644.5 991.2,761.7 1025.5,678.8 "/>
<polygon class="st5" points="1025.5,678.8 991.2,761.7 1074.1,678.8 "/>
<polygon class="st5" points="1074.1,678.8 991.2,761.6 1039.7,761.6 "/>
<polygon class="st17" points="1039.7,761.6 1074.1,795.9 1074.1,678.8 "/>
<polygon class="st5" points="1039.7,761.6 991.2,761.6 1074.1,795.9 "/>
<polygon class="st5" points="1074.1,795.9 991.2,761.6 1025.5,795.9 "/>
<polygon class="st5" points="991.2,761.6 991.2,878.8 1025.5,795.9 "/>
<polygon class="st5" points="1025.5,795.9 991.2,878.8 1074.1,795.9 "/>
<polygon class="st5" points="1156.7,-106.7 1073.8,-23.9 1122.3,-23.9 "/>
<polygon class="st17" points="1122.3,-23.9 1156.7,10.4 1156.7,-106.7 "/>
<polygon class="st5" points="1122.3,-23.9 1073.8,-23.9 1156.7,10.4 "/>
<polygon class="st5" points="1156.7,10.4 1073.8,-23.9 1108.1,10.4 "/>
<polygon class="st5" points="1073.8,-23.9 1073.8,93.3 1108.1,10.4 "/>
<polygon class="st5" points="1108.1,10.4 1073.8,93.3 1156.7,10.4 "/>
<polygon class="st5" points="1156.7,10.4 1073.8,93.2 1122.3,93.2 "/>
<polygon class="st5" points="1122.3,93.2 1156.7,127.5 1156.7,10.4 "/>
<polygon class="st5" points="1122.3,93.2 1073.8,93.2 1156.7,127.5 "/>
<polygon class="st5" points="1156.7,127.5 1073.8,93.2 1108.1,127.5 "/>
<polygon class="st2" points="1073.8,93.2 1073.8,210.4 1108.1,127.5 "/>
<polygon class="st2" points="1108.1,127.5 1073.8,210.4 1156.7,127.5 "/>
<polygon class="st2" points="1156.7,127.5 1073.8,210.3 1122.3,210.3 "/>
<polygon class="st5" points="1122.3,210.3 1156.7,244.6 1156.7,127.5 "/>
<polygon class="st2" points="1122.3,210.3 1073.8,210.3 1156.7,244.6 "/>
<polygon class="st2" points="1156.7,244.6 1073.8,210.3 1108.1,244.6 "/>
<polygon class="st1" points="1073.8,210.3 1073.8,327.5 1108.1,244.6 "/>
<polygon class="st2" points="1108.1,244.6 1073.8,327.5 1156.7,244.6 "/>
<polygon class="st2" points="1156.7,244.6 1073.8,327.4 1122.3,327.4 "/>
<polygon class="st5" points="1122.3,327.4 1156.7,361.7 1156.7,244.6 "/>
<polygon class="st2" points="1122.3,327.4 1073.8,327.4 1156.7,361.7 "/>
<polygon class="st2" points="1156.7,361.7 1073.8,327.4 1108.1,361.7 "/>
<polygon class="st1" points="1073.8,327.4 1073.8,444.6 1108.1,361.7 "/>
<polygon class="st2" points="1108.1,361.7 1073.8,444.6 1156.7,361.7 "/>
<polygon class="st2" points="1156.7,361.7 1073.8,444.5 1122.3,444.5 "/>
<polygon class="st5" points="1122.3,444.5 1156.7,478.8 1156.7,361.7 "/>
<polygon class="st5" points="1122.3,444.5 1073.8,444.5 1156.7,478.8 "/>
<polygon class="st5" points="1156.7,478.8 1073.8,444.5 1108.1,478.8 "/>
<polygon class="st2" points="1073.8,444.5 1073.8,561.7 1108.1,478.8 "/>
<polygon class="st5" points="1108.1,478.8 1073.8,561.7 1156.7,478.8 "/>
<polygon class="st5" points="1156.7,478.8 1073.8,561.6 1122.3,561.6 "/>
<polygon class="st17" points="1122.3,561.6 1156.7,595.9 1156.7,478.8 "/>
<polygon class="st17" points="1122.3,561.6 1073.8,561.6 1156.7,595.9 "/>
<polygon class="st17" points="1156.7,595.9 1073.8,561.6 1108.1,595.9 "/>
<polygon class="st5" points="1073.8,561.6 1073.8,678.8 1108.1,595.9 "/>
<polygon class="st17" points="1108.1,595.9 1073.8,678.8 1156.7,595.9 "/>
<polygon class="st18" points="1156.7,595.9 1073.8,678.7 1122.3,678.7 "/>
<polygon class="st18" points="1122.3,678.7 1156.7,713 1156.7,595.9 "/>
<polygon class="st18" points="1122.3,678.7 1073.8,678.7 1156.7,713 "/>
<polygon class="st18" points="1156.7,713 1073.8,678.7 1108.1,713 "/>
<polygon class="st17" points="1073.8,678.7 1073.8,795.9 1108.1,713 "/>
<polygon class="st18" points="1108.1,713 1073.8,795.9 1156.7,713 "/>
<polygon class="st18" points="1156.7,713 1073.8,795.8 1122.3,795.8 "/>
<polygon class="st18" points="1122.3,795.8 1156.7,830.1 1156.7,713 "/>
<polygon class="st18" points="1122.3,795.8 1073.8,795.8 1156.7,830.1 "/>
<polygon class="st18" points="1156.7,830.1 1073.8,795.8 1108.1,830.1 "/>
<polygon class="st17" points="1073.8,795.8 1073.8,913 1108.1,830.1 "/>
<polygon class="st18" points="1108.1,830.1 1073.8,913 1156.7,830.1 "/>
<polygon class="st18" points="1239.3,-189.6 1156.4,-106.8 1204.9,-106.8 "/>
<polygon class="st19" points="1204.9,-106.8 1239.3,-72.5 1239.3,-189.6 "/>
<polygon class="st18" points="1204.9,-106.8 1156.4,-106.8 1239.3,-72.5 "/>
<polygon class="st18" points="1239.3,-72.5 1156.4,-106.8 1190.7,-72.5 "/>
<polygon class="st17" points="1156.4,-106.8 1156.4,10.4 1190.7,-72.5 "/>
<polygon class="st18" points="1190.7,-72.5 1156.4,10.4 1239.3,-72.5 "/>
<polygon class="st18" points="1239.3,-72.5 1156.4,10.3 1204.9,10.3 "/>
<polygon class="st19" points="1204.9,10.3 1239.3,44.6 1239.3,-72.5 "/>
<polygon class="st18" points="1204.9,10.3 1156.4,10.3 1239.3,44.6 "/>
<polygon class="st18" points="1239.3,44.6 1156.4,10.3 1190.7,44.6 "/>
<polygon class="st17" points="1156.4,10.3 1156.4,127.5 1190.7,44.6 "/>
<polygon class="st17" points="1190.7,44.6 1156.4,127.5 1239.3,44.6 "/>
<polygon class="st17" points="1239.3,44.6 1156.4,127.4 1204.9,127.4 "/>
<polygon class="st18" points="1204.9,127.4 1239.3,161.7 1239.3,44.6 "/>
<polygon class="st17" points="1204.9,127.4 1156.4,127.4 1239.3,161.7 "/>
<polygon class="st17" points="1239.3,161.7 1156.4,127.4 1190.7,161.7 "/>
<polygon class="st5" points="1156.4,127.4 1156.4,244.6 1190.7,161.7 "/>
<polygon class="st17" points="1190.7,161.7 1156.4,244.6 1239.3,161.7 "/>
<polygon class="st17" points="1239.3,161.7 1156.4,244.5 1204.9,244.5 "/>
<polygon class="st17" points="1204.9,244.5 1239.3,278.8 1239.3,161.7 "/>
<polygon class="st17" points="1204.9,244.5 1156.4,244.5 1239.3,278.8 "/>
<polygon class="st17" points="1239.3,278.8 1156.4,244.5 1190.7,278.8 "/>
<polygon class="st5" points="1156.4,244.5 1156.4,361.7 1190.7,278.8 "/>
<polygon class="st17" points="1190.7,278.8 1156.4,361.7 1239.3,278.8 "/>
<polygon class="st17" points="1239.3,278.8 1156.4,361.6 1204.9,361.6 "/>
<polygon class="st17" points="1204.9,361.6 1239.3,395.9 1239.3,278.8 "/>
<polygon class="st17" points="1204.9,361.6 1156.4,361.6 1239.3,395.9 "/>
<polygon class="st17" points="1239.3,395.9 1156.4,361.6 1190.7,395.9 "/>
<polygon class="st5" points="1156.4,361.6 1156.4,478.8 1190.7,395.9 "/>
<polygon class="st17" points="1190.7,395.9 1156.4,478.8 1239.3,395.9 "/>
<polygon class="st17" points="1239.3,395.9 1156.4,478.7 1204.9,478.7 "/>
<polygon class="st18" points="1204.9,478.7 1239.3,513 1239.3,395.9 "/>
<polygon class="st18" points="1204.9,478.7 1156.4,478.7 1239.3,513 "/>
<polygon class="st18" points="1239.3,513 1156.4,478.7 1190.7,513 "/>
<polygon class="st17" points="1156.4,478.7 1156.4,595.9 1190.7,513 "/>
<polygon class="st18" points="1190.7,513 1156.4,595.9 1239.3,513 "/>
<polygon class="st19" points="1239.3,513 1156.4,595.8 1204.9,595.8 "/>
<polygon class="st19" points="1204.9,595.8 1239.3,630.1 1239.3,513 "/>
<polygon class="st19" points="1204.9,595.8 1156.4,595.8 1239.3,630.1 "/>
<polygon class="st19" points="1239.3,630.1 1156.4,595.8 1190.7,630.1 "/>
<polygon class="st19" points="1156.4,595.8 1156.4,713 1190.7,630.1 "/>
<polygon class="st19" points="1190.7,630.1 1156.4,713 1239.3,630.1 "/>
<polygon class="st19" points="1239.3,630.1 1156.4,712.9 1204.9,712.9 "/>
<polygon class="st20" points="1204.9,712.9 1239.3,747.2 1239.3,630.1 "/>
<polygon class="st19" points="1204.9,712.9 1156.4,712.9 1239.3,747.2 "/>
<polygon class="st19" points="1239.3,747.2 1156.4,712.9 1190.7,747.2 "/>
<polygon class="st19" points="1156.4,712.9 1156.4,830.1 1190.7,747.2 "/>
<polygon class="st19" points="1190.7,747.2 1156.4,830.1 1239.3,747.2 "/>
<polygon class="st20" points="1321.9,-155.4 1239,-72.6 1287.5,-72.6 "/>
<polygon class="st21" points="1287.5,-72.6 1321.9,-38.3 1321.9,-155.4 "/>
<polygon class="st20" points="1287.5,-72.6 1239,-72.6 1321.9,-38.3 "/>
<polygon class="st20" points="1321.9,-38.3 1239,-72.6 1273.3,-38.3 "/>
<polygon class="st19" points="1239,-72.6 1239,44.6 1273.3,-38.3 "/>
<polygon class="st20" points="1273.3,-38.3 1239,44.6 1321.9,-38.3 "/>
<polygon class="st20" points="1321.9,-38.3 1239,44.5 1287.5,44.5 "/>
<polygon class="st20" points="1287.5,44.5 1321.9,78.8 1321.9,-38.3 "/>
<polygon class="st20" points="1287.5,44.5 1239,44.5 1321.9,78.8 "/>
<polygon class="st19" points="1321.9,78.8 1239,44.5 1273.3,78.8 "/>
<polygon class="st19" points="1239,44.5 1239,161.7 1273.3,78.8 "/>
<polygon class="st19" points="1273.3,78.8 1239,161.7 1321.9,78.8 "/>
<polygon class="st19" points="1321.9,78.8 1239,161.6 1287.5,161.6 "/>
<polygon class="st20" points="1287.5,161.6 1321.9,195.9 1321.9,78.8 "/>
<polygon class="st19" points="1287.5,161.6 1239,161.6 1321.9,195.9 "/>
<polygon class="st19" points="1321.9,195.9 1239,161.6 1273.3,195.9 "/>
<polygon class="st18" points="1239,161.6 1239,278.8 1273.3,195.9 "/>
<polygon class="st19" points="1273.3,195.9 1239,278.8 1321.9,195.9 "/>
<polygon class="st19" points="1321.9,195.9 1239,278.7 1287.5,278.7 "/>
<polygon class="st19" points="1287.5,278.7 1321.9,313 1321.9,195.9 "/>
<polygon class="st19" points="1287.5,278.7 1239,278.7 1321.9,313 "/>
<polygon class="st19" points="1321.9,313 1239,278.7 1273.3,313 "/>
<polygon class="st18" points="1239,278.7 1239,395.9 1273.3,313 "/>
<polygon class="st19" points="1273.3,313 1239,395.9 1321.9,313 "/>
<polygon class="st19" points="1321.9,313 1239,395.8 1287.5,395.8 "/>
<polygon class="st19" points="1287.5,395.8 1321.9,430.1 1321.9,313 "/>
<polygon class="st19" points="1287.5,395.8 1239,395.8 1321.9,430.1 "/>
<polygon class="st19" points="1321.9,430.1 1239,395.8 1273.3,430.1 "/>
<polygon class="st19" points="1239,395.8 1239,513 1273.3,430.1 "/>
<polygon class="st19" points="1273.3,430.1 1239,513 1321.9,430.1 "/>
<polygon class="st19" points="1321.9,430.1 1239,512.9 1287.5,512.9 "/>
<polygon class="st20" points="1287.5,512.9 1321.9,547.2 1321.9,430.1 "/>
<polygon class="st20" points="1287.5,512.9 1239,512.9 1321.9,547.2 "/>
<polygon class="st20" points="1321.9,547.2 1239,512.9 1273.3,547.2 "/>
<polygon class="st19" points="1239,512.9 1239,630.1 1273.3,547.2 "/>
<polygon class="st20" points="1273.3,547.2 1239,630.1 1321.9,547.2 "/>
<polygon class="st21" points="1321.9,547.2 1239,630 1287.5,630 "/>
<polygon class="st21" points="1287.5,630 1321.9,664.3 1321.9,547.2 "/>
<polygon class="st21" points="1287.5,630 1239,630 1321.9,664.3 "/>
<polygon class="st21" points="1321.9,664.3 1239,630 1273.3,664.3 "/>
<polygon class="st20" points="1239,630 1239,747.2 1273.3,664.3 "/>
<polygon class="st21" points="1273.3,664.3 1239,747.2 1321.9,664.3 "/>
<polygon class="st21" points="1321.9,664.3 1239,747.1 1287.5,747.1 "/>
<polygon class="st22" points="1287.5,747.1 1321.9,781.4 1321.9,664.3 "/>
<polygon class="st21" points="1287.5,747.1 1239,747.1 1321.9,781.4 "/>
<polygon class="st21" points="1321.9,781.4 1239,747.1 1273.3,781.4 "/>
<polygon class="st20" points="1239,747.1 1239,864.3 1273.3,781.4 "/>
<polygon class="st21" points="1273.3,781.4 1239,864.3 1321.9,781.4 "/>
<polygon class="st22" points="1404.5,-121.2 1321.6,-38.4 1370.1,-38.4 "/>
<polygon class="st22" points="1370.1,-38.4 1404.5,-4.1 1404.5,-121.2 "/>
<polygon class="st22" points="1370.1,-38.4 1321.6,-38.4 1404.5,-4.1 "/>
<polygon class="st22" points="1404.5,-4.1 1321.6,-38.4 1355.9,-4.1 "/>
<polygon class="st21" points="1321.6,-38.4 1321.6,78.8 1355.9,-4.1 "/>
<polygon class="st22" points="1355.9,-4.1 1321.6,78.8 1404.5,-4.1 "/>
<polygon class="st21" points="1404.5,-4.1 1321.6,78.7 1370.1,78.7 "/>
<polygon class="st22" points="1370.1,78.7 1404.5,113 1404.5,-4.1 "/>
<polygon class="st21" points="1370.1,78.7 1321.6,78.7 1404.5,113 "/>
<polygon class="st21" points="1404.5,113 1321.6,78.7 1355.9,113 "/>
<polygon class="st20" points="1321.6,78.7 1321.6,195.9 1355.9,113 "/>
<polygon class="st21" points="1355.9,113 1321.6,195.9 1404.5,113 "/>
<polygon class="st21" points="1404.5,113 1321.6,195.8 1370.1,195.8 "/>
<polygon class="st21" points="1370.1,195.8 1404.5,230.1 1404.5,113 "/>
<polygon class="st21" points="1370.1,195.8 1321.6,195.8 1404.5,230.1 "/>
<polygon class="st21" points="1404.5,230.1 1321.6,195.8 1355.9,230.1 "/>
<polygon class="st20" points="1321.6,195.8 1321.6,313 1355.9,230.1 "/>
<polygon class="st21" points="1355.9,230.1 1321.6,313 1404.5,230.1 "/>
<polygon class="st21" points="1404.5,230.1 1321.6,312.9 1370.1,312.9 "/>
<polygon class="st21" points="1370.1,312.9 1404.5,347.2 1404.5,230.1 "/>
<polygon class="st21" points="1370.1,312.9 1321.6,312.9 1404.5,347.2 "/>
<polygon class="st21" points="1404.5,347.2 1321.6,312.9 1355.9,347.2 "/>
<polygon class="st20" points="1321.6,312.9 1321.6,430.1 1355.9,347.2 "/>
<polygon class="st21" points="1355.9,347.2 1321.6,430.1 1404.5,347.2 "/>
<polygon class="st21" points="1404.5,347.2 1321.6,430 1370.1,430 "/>
<polygon class="st22" points="1370.1,430 1404.5,464.3 1404.5,347.2 "/>
<polygon class="st21" points="1370.1,430 1321.6,430 1404.5,464.3 "/>
<polygon class="st21" points="1404.5,464.3 1321.6,430 1355.9,464.3 "/>
<polygon class="st21" points="1321.6,430 1321.6,547.2 1355.9,464.3 "/>
<polygon class="st21" points="1355.9,464.3 1321.6,547.2 1404.5,464.3 "/>
<polygon class="st21" points="1404.5,464.3 1321.6,547.1 1370.1,547.1 "/>
<polygon class="st22" points="1370.1,547.1 1404.5,581.4 1404.5,464.3 "/>
<polygon class="st22" points="1370.1,547.1 1321.6,547.1 1404.5,581.4 "/>
<polygon class="st22" points="1404.5,581.4 1321.6,547.1 1355.9,581.4 "/>
<polygon class="st21" points="1321.6,547.1 1321.6,664.3 1355.9,581.4 "/>
<polygon class="st22" points="1355.9,581.4 1321.6,664.3 1404.5,581.4 "/>
<polygon class="st22" points="1404.5,581.4 1321.6,664.2 1370.1,664.2 "/>
<polygon class="st23" points="1370.1,664.2 1404.5,698.5 1404.5,581.4 "/>
<polygon class="st23" points="1370.1,664.2 1321.6,664.2 1404.5,698.5 "/>
<polygon class="st23" points="1404.5,698.5 1321.6,664.2 1355.9,698.5 "/>
<polygon class="st22" points="1321.6,664.2 1321.6,781.4 1355.9,698.5 "/>
<polygon class="st23" points="1355.9,698.5 1321.6,781.4 1404.5,698.5 "/>
<polygon class="st23" points="1404.5,698.5 1321.6,781.3 1370.1,781.3 "/>
<polygon class="st23" points="1370.1,781.3 1404.5,815.6 1404.5,698.5 "/>
<polygon class="st23" points="1370.1,781.3 1321.6,781.3 1404.5,815.6 "/>
<polygon class="st23" points="1404.5,815.6 1321.6,781.3 1355.9,815.6 "/>
<polygon class="st22" points="1321.6,781.3 1321.6,898.5 1355.9,815.6 "/>
<polygon class="st23" points="1355.9,815.6 1321.6,898.5 1404.5,815.6 "/>
<polygon class="st24" points="1487.1,-87 1404.2,-4.2 1452.7,-4.2 "/>
<polygon class="st25" points="1452.7,-4.2 1487.1,30.1 1487.1,-87 "/>
<polygon class="st24" points="1452.7,-4.2 1404.2,-4.2 1487.1,30.1 "/>
<polygon class="st23" points="1487.1,30.1 1404.2,-4.2 1438.5,30.1 "/>
<polygon class="st22" points="1404.2,-4.2 1404.2,113 1438.5,30.1 "/>
<polygon class="st23" points="1438.5,30.1 1404.2,113 1487.1,30.1 "/>
<polygon class="st23" points="1487.1,30.1 1404.2,112.9 1452.7,112.9 "/>
<polygon class="st24" points="1452.7,112.9 1487.1,147.2 1487.1,30.1 "/>
<polygon class="st23" points="1452.7,112.9 1404.2,112.9 1487.1,147.2 "/>
<polygon class="st23" points="1487.1,147.2 1404.2,112.9 1438.5,147.2 "/>
<polygon class="st22" points="1404.2,112.9 1404.2,230.1 1438.5,147.2 "/>
<polygon class="st22" points="1438.5,147.2 1404.2,230.1 1487.1,147.2 "/>
<polygon class="st23" points="1487.1,147.2 1404.2,230 1452.7,230 "/>
<polygon class="st23" points="1452.7,230 1487.1,264.3 1487.1,147.2 "/>
<polygon class="st23" points="1452.7,230 1404.2,230 1487.1,264.3 "/>
<polygon class="st22" points="1487.1,264.3 1404.2,230 1438.5,264.3 "/>
<polygon class="st22" points="1404.2,230 1404.2,347.2 1438.5,264.3 "/>
<polygon class="st22" points="1438.5,264.3 1404.2,347.2 1487.1,264.3 "/>
<polygon class="st23" points="1487.1,264.3 1404.2,347.1 1452.7,347.1 "/>
<polygon class="st23" points="1452.7,347.1 1487.1,381.4 1487.1,264.3 "/>
<polygon class="st23" points="1452.7,347.1 1404.2,347.1 1487.1,381.4 "/>
<polygon class="st22" points="1487.1,381.4 1404.2,347.1 1438.5,381.4 "/>
<polygon class="st22" points="1404.2,347.1 1404.2,464.3 1438.5,381.4 "/>
<polygon class="st23" points="1438.5,381.4 1404.2,464.3 1487.1,381.4 "/>
<polygon class="st23" points="1487.1,381.4 1404.2,464.2 1452.7,464.2 "/>
<polygon class="st24" points="1452.7,464.2 1487.1,498.5 1487.1,381.4 "/>
<polygon class="st23" points="1452.7,464.2 1404.2,464.2 1487.1,498.5 "/>
<polygon class="st23" points="1487.1,498.5 1404.2,464.2 1438.5,498.5 "/>
<polygon class="st22" points="1404.2,464.2 1404.2,581.4 1438.5,498.5 "/>
<polygon class="st23" points="1438.5,498.5 1404.2,581.4 1487.1,498.5 "/>
<polygon class="st24" points="1487.1,498.5 1404.2,581.3 1452.7,581.3 "/>
<polygon class="st25" points="1452.7,581.3 1487.1,615.6 1487.1,498.5 "/>
<polygon class="st24" points="1452.7,581.3 1404.2,581.3 1487.1,615.6 "/>
<polygon class="st24" points="1487.1,615.6 1404.2,581.3 1438.5,615.6 "/>
<polygon class="st23" points="1404.2,581.3 1404.2,698.5 1438.5,615.6 "/>
<polygon class="st25" points="1438.5,615.6 1404.2,698.5 1487.1,615.6 "/>
<polygon class="st25" points="1487.1,615.6 1404.2,698.4 1452.7,698.4 "/>
<polygon class="st26" points="1452.7,698.4 1487.1,732.7 1487.1,615.6 "/>
<polygon class="st25" points="1452.7,698.4 1404.2,698.4 1487.1,732.7 "/>
<polygon class="st25" points="1487.1,732.7 1404.2,698.4 1438.5,732.7 "/>
<polygon class="st24" points="1404.2,698.4 1404.2,815.6 1438.5,732.7 "/>
<polygon class="st25" points="1438.5,732.7 1404.2,815.6 1487.1,732.7 "/>
<polygon class="st25" points="1487.1,732.7 1404.2,815.5 1452.7,815.5 "/>
<polygon class="st26" points="1452.7,815.5 1487.1,849.8 1487.1,732.7 "/>
<polygon class="st25" points="1452.7,815.5 1404.2,815.5 1487.1,849.8 "/>
<polygon class="st25" points="1487.1,849.8 1404.2,815.5 1438.5,849.8 "/>
<polygon class="st24" points="1404.2,815.5 1404.2,932.7 1438.5,849.8 "/>
<polygon class="st25" points="1438.5,849.8 1404.2,932.7 1487.1,849.8 "/>
<polygon class="st26" points="1569.7,-169.9 1486.8,-87.1 1535.3,-87.1 "/>
<polygon class="st27" points="1535.3,-87.1 1569.7,-52.8 1569.7,-169.9 "/>
<polygon class="st26" points="1535.3,-87.1 1486.8,-87.1 1569.7,-52.8 "/>
<polygon class="st26" points="1569.7,-52.8 1486.8,-87.1 1521.1,-52.8 "/>
<polygon class="st26" points="1486.8,-87.1 1486.8,30.1 1521.1,-52.8 "/>
<polygon class="st26" points="1521.1,-52.8 1486.8,30.1 1569.7,-52.8 "/>
<polygon class="st26" points="1569.7,-52.8 1486.8,30 1535.3,30 "/>
<polygon class="st27" points="1535.3,30 1569.7,64.3 1569.7,-52.8 "/>
<polygon class="st26" points="1535.3,30 1486.8,30 1569.7,64.3 "/>
<polygon class="st26" points="1569.7,64.3 1486.8,30 1521.1,64.3 "/>
<polygon class="st24" points="1486.8,30 1486.8,147.2 1521.1,64.3 "/>
<polygon class="st26" points="1521.1,64.3 1486.8,147.2 1569.7,64.3 "/>
<polygon class="st26" points="1569.7,64.3 1486.8,147.1 1535.3,147.1 "/>
<polygon class="st26" points="1535.3,147.1 1569.7,181.4 1569.7,64.3 "/>
<polygon class="st25" points="1535.3,147.1 1486.8,147.1 1569.7,181.4 "/>
<polygon class="st25" points="1569.7,181.4 1486.8,147.1 1521.1,181.4 "/>
<polygon class="st24" points="1486.8,147.1 1486.8,264.3 1521.1,181.4 "/>
<polygon class="st25" points="1521.1,181.4 1486.8,264.3 1569.7,181.4 "/>
<polygon class="st25" points="1569.7,181.4 1486.8,264.2 1535.3,264.2 "/>
<polygon class="st26" points="1535.3,264.2 1569.7,298.5 1569.7,181.4 "/>
<polygon class="st25" points="1535.3,264.2 1486.8,264.2 1569.7,298.5 "/>
<polygon class="st25" points="1569.7,298.5 1486.8,264.2 1521.1,298.5 "/>
<polygon class="st24" points="1486.8,264.2 1486.8,381.4 1521.1,298.5 "/>
<polygon class="st25" points="1521.1,298.5 1486.8,381.4 1569.7,298.5 "/>
<polygon class="st25" points="1569.7,298.5 1486.8,381.3 1535.3,381.3 "/>
<polygon class="st26" points="1535.3,381.3 1569.7,415.6 1569.7,298.5 "/>
<polygon class="st25" points="1535.3,381.3 1486.8,381.3 1569.7,415.6 "/>
<polygon class="st25" points="1569.7,415.6 1486.8,381.3 1521.1,415.6 "/>
<polygon class="st24" points="1486.8,381.3 1486.8,498.5 1521.1,415.6 "/>
<polygon class="st25" points="1521.1,415.6 1486.8,498.5 1569.7,415.6 "/>
<polygon class="st26" points="1569.7,415.6 1486.8,498.4 1535.3,498.4 "/>
<polygon class="st27" points="1535.3,498.4 1569.7,532.7 1569.7,415.6 "/>
<polygon class="st26" points="1535.3,498.4 1486.8,498.4 1569.7,532.7 "/>
<polygon class="st26" points="1569.7,532.7 1486.8,498.4 1521.1,532.7 "/>
<polygon class="st26" points="1486.8,498.4 1486.8,615.6 1521.1,532.7 "/>
<polygon class="st26" points="1521.1,532.7 1486.8,615.6 1569.7,532.7 "/>
<polygon class="st27" points="1569.7,532.7 1486.8,615.5 1535.3,615.5 "/>
<polygon class="st27" points="1535.3,615.5 1569.7,649.8 1569.7,532.7 "/>
<polygon class="st27" points="1535.3,615.5 1486.8,615.5 1569.7,649.8 "/>
<polygon class="st27" points="1569.7,649.8 1486.8,615.5 1521.1,649.8 "/>
<polygon class="st26" points="1486.8,615.5 1486.8,732.7 1521.1,649.8 "/>
<polygon class="st27" points="1521.1,649.8 1486.8,732.7 1569.7,649.8 "/>
<polygon class="st27" points="1569.7,649.8 1486.8,732.6 1535.3,732.6 "/>
<polygon class="st28" points="1535.3,732.6 1569.7,766.9 1569.7,649.8 "/>
<polygon class="st27" points="1535.3,732.6 1486.8,732.6 1569.7,766.9 "/>
<polygon class="st27" points="1569.7,766.9 1486.8,732.6 1521.1,766.9 "/>
<polygon class="st26" points="1486.8,732.6 1486.8,849.8 1521.1,766.9 "/>
<polygon class="st27" points="1521.1,766.9 1486.8,849.8 1569.7,766.9 "/>
<polygon class="st28" points="1652.3,-135.7 1569.4,-52.9 1617.9,-52.9 "/>
<polygon class="st29" points="1617.9,-52.9 1652.3,-18.6 1652.3,-135.7 "/>
<polygon class="st28" points="1617.9,-52.9 1569.4,-52.9 1652.3,-18.6 "/>
<polygon class="st28" points="1652.3,-18.6 1569.4,-52.9 1603.7,-18.6 "/>
<polygon class="st27" points="1569.4,-52.9 1569.4,64.3 1603.7,-18.6 "/>
<polygon class="st28" points="1603.7,-18.6 1569.4,64.3 1652.3,-18.6 "/>
<polygon class="st28" points="1652.3,-18.6 1569.4,64.2 1617.9,64.2 "/>
<polygon class="st28" points="1617.9,64.2 1652.3,98.5 1652.3,-18.6 "/>
<polygon class="st28" points="1617.9,64.2 1569.4,64.2 1652.3,98.5 "/>
<polygon class="st28" points="1652.3,98.5 1569.4,64.2 1603.7,98.5 "/>
<polygon class="st27" points="1569.4,64.2 1569.4,181.4 1603.7,98.5 "/>
<polygon class="st28" points="1603.7,98.5 1569.4,181.4 1652.3,98.5 "/>
<polygon class="st27" points="1652.3,98.5 1569.4,181.3 1617.9,181.3 "/>
<polygon class="st28" points="1617.9,181.3 1652.3,215.6 1652.3,98.5 "/>
<polygon class="st27" points="1617.9,181.3 1569.4,181.3 1652.3,215.6 "/>
<polygon class="st27" points="1652.3,215.6 1569.4,181.3 1603.7,215.6 "/>
<polygon class="st27" points="1569.4,181.3 1569.4,298.5 1603.7,215.6 "/>
<polygon class="st27" points="1603.7,215.6 1569.4,298.5 1652.3,215.6 "/>
<polygon class="st27" points="1652.3,215.6 1569.4,298.4 1617.9,298.4 "/>
<polygon class="st28" points="1617.9,298.4 1652.3,332.7 1652.3,215.6 "/>
<polygon class="st27" points="1617.9,298.4 1569.4,298.4 1652.3,332.7 "/>
<polygon class="st27" points="1652.3,332.7 1569.4,298.4 1603.7,332.7 "/>
<polygon class="st27" points="1569.4,298.4 1569.4,415.6 1603.7,332.7 "/>
<polygon class="st27" points="1603.7,332.7 1569.4,415.6 1652.3,332.7 "/>
<polygon class="st27" points="1652.3,332.7 1569.4,415.5 1617.9,415.5 "/>
<polygon class="st28" points="1617.9,415.5 1652.3,449.8 1652.3,332.7 "/>
<polygon class="st28" points="1617.9,415.5 1569.4,415.5 1652.3,449.8 "/>
<polygon class="st28" points="1652.3,449.8 1569.4,415.5 1603.7,449.8 "/>
<polygon class="st27" points="1569.4,415.5 1569.4,532.7 1603.7,449.8 "/>
<polygon class="st28" points="1603.7,449.8 1569.4,532.7 1652.3,449.8 "/>
<polygon class="st28" points="1652.3,449.8 1569.4,532.6 1617.9,532.6 "/>
<polygon class="st29" points="1617.9,532.6 1652.3,566.9 1652.3,449.8 "/>
<polygon class="st28" points="1617.9,532.6 1569.4,532.6 1652.3,566.9 "/>
<polygon class="st28" points="1652.3,566.9 1569.4,532.6 1603.7,566.9 "/>
<polygon class="st28" points="1569.4,532.6 1569.4,649.8 1603.7,566.9 "/>
<polygon class="st28" points="1603.7,566.9 1569.4,649.8 1652.3,566.9 "/>
<polygon class="st29" points="1652.3,566.9 1569.4,649.7 1617.9,649.7 "/>
<polygon class="st29" points="1617.9,649.7 1652.3,684 1652.3,566.9 "/>
<polygon class="st29" points="1617.9,649.7 1569.4,649.7 1652.3,684 "/>
<polygon class="st29" points="1652.3,684 1569.4,649.7 1603.7,684 "/>
<polygon class="st28" points="1569.4,649.7 1569.4,766.9 1603.7,684 "/>
<polygon class="st29" points="1603.7,684 1569.4,766.9 1652.3,684 "/>
<polygon class="st29" points="1652.3,684 1569.4,766.8 1617.9,766.8 "/>
<polygon class="st30" points="1617.9,766.8 1652.3,801.1 1652.3,684 "/>
<polygon class="st29" points="1617.9,766.8 1569.4,766.8 1652.3,801.1 "/>
<polygon class="st29" points="1652.3,801.1 1569.4,766.8 1603.7,801.1 "/>
<polygon class="st28" points="1569.4,766.8 1569.4,884 1603.7,801.1 "/>
<polygon class="st29" points="1603.7,801.1 1569.4,884 1652.3,801.1 "/>
<polygon class="st30" points="1734.9,-101.5 1652,-18.7 1700.5,-18.7 "/>
<polygon class="st30" points="1700.5,-18.7 1734.9,15.6 1734.9,-101.5 "/>
<polygon class="st30" points="1700.5,-18.7 1652,-18.7 1734.9,15.6 "/>
<polygon class="st30" points="1734.9,15.6 1652,-18.7 1686.3,15.6 "/>
<polygon class="st29" points="1652,-18.7 1652,98.5 1686.3,15.6 "/>
<polygon class="st30" points="1686.3,15.6 1652,98.5 1734.9,15.6 "/>
<polygon class="st30" points="1734.9,15.6 1652,98.4 1700.5,98.4 "/>
<polygon class="st30" points="1700.5,98.4 1734.9,132.7 1734.9,15.6 "/>
<polygon class="st29" points="1700.5,98.4 1652,98.4 1734.9,132.7 "/>
<polygon class="st29" points="1734.9,132.7 1652,98.4 1686.3,132.7 "/>
<polygon class="st28" points="1652,98.4 1652,215.6 1686.3,132.7 "/>
<polygon class="st29" points="1686.3,132.7 1652,215.6 1734.9,132.7 "/>
<polygon class="st29" points="1734.9,132.7 1652,215.5 1700.5,215.5 "/>
<polygon class="st30" points="1700.5,215.5 1734.9,249.8 1734.9,132.7 "/>
<polygon class="st29" points="1700.5,215.5 1652,215.5 1734.9,249.8 "/>
<polygon class="st29" points="1734.9,249.8 1652,215.5 1686.3,249.8 "/>
<polygon class="st28" points="1652,215.5 1652,332.7 1686.3,249.8 "/>
<polygon class="st29" points="1686.3,249.8 1652,332.7 1734.9,249.8 "/>
<polygon class="st29" points="1734.9,249.8 1652,332.6 1700.5,332.6 "/>
<polygon class="st30" points="1700.5,332.6 1734.9,366.9 1734.9,249.8 "/>
<polygon class="st29" points="1700.5,332.6 1652,332.6 1734.9,366.9 "/>
<polygon class="st29" points="1734.9,366.9 1652,332.6 1686.3,366.9 "/>
<polygon class="st28" points="1652,332.6 1652,449.8 1686.3,366.9 "/>
<polygon class="st29" points="1686.3,366.9 1652,449.8 1734.9,366.9 "/>
<polygon class="st29" points="1734.9,366.9 1652,449.7 1700.5,449.7 "/>
<polygon class="st30" points="1700.5,449.7 1734.9,484 1734.9,366.9 "/>
<polygon class="st29" points="1700.5,449.7 1652,449.7 1734.9,484 "/>
<polygon class="st30" points="1734.9,484 1652,449.7 1686.3,484 "/>
<polygon class="st29" points="1652,449.7 1652,566.9 1686.3,484 "/>
<polygon class="st30" points="1686.3,484 1652,566.9 1734.9,484 "/>
<polygon class="st30" points="1734.9,484 1652,566.8 1700.5,566.8 "/>
<polygon class="st30" points="1700.5,566.8 1734.9,601.1 1734.9,484 "/>
<polygon class="st30" points="1700.5,566.8 1652,566.8 1734.9,601.1 "/>
<polygon class="st30" points="1734.9,601.1 1652,566.8 1686.3,601.1 "/>
<polygon class="st30" points="1652,566.8 1652,684 1686.3,601.1 "/>
<polygon class="st30" points="1686.3,601.1 1652,684 1734.9,601.1 "/>
<polygon class="st30" points="1734.9,601.1 1652,683.9 1700.5,683.9 "/>
<polygon class="st31" points="1700.5,683.9 1734.9,718.2 1734.9,601.1 "/>
<polygon class="st30" points="1700.5,683.9 1652,683.9 1734.9,718.2 "/>
<polygon class="st30" points="1734.9,718.2 1652,683.9 1686.3,718.2 "/>
<polygon class="st30" points="1652,683.9 1652,801.1 1686.3,718.2 "/>
<polygon class="st30" points="1686.3,718.2 1652,801.1 1734.9,718.2 "/>
<polygon class="st30" points="1734.9,718.2 1652,801 1700.5,801 "/>
<polygon class="st31" points="1700.5,801 1734.9,835.3 1734.9,718.2 "/>
<polygon class="st30" points="1700.5,801 1652,801 1734.9,835.3 "/>
<polygon class="st30" points="1734.9,835.3 1652,801 1686.3,835.3 "/>
<polygon class="st30" points="1652,801 1652,918.2 1686.3,835.3 "/>
<polygon class="st30" points="1686.3,835.3 1652,918.2 1734.9,835.3 "/>
<polygon class="st32" points="1817.5,-184.4 1734.6,-101.6 1783.1,-101.6 "/>
<polygon class="st32" points="1783.1,-101.6 1817.5,-67.3 1817.5,-184.4 "/>
<polygon class="st32" points="1783.1,-101.6 1734.6,-101.6 1817.5,-67.3 "/>
<polygon class="st32" points="1817.5,-67.3 1734.6,-101.6 1768.9,-67.3 "/>
<polygon class="st31" points="1734.6,-101.6 1734.6,15.6 1768.9,-67.3 "/>
<polygon class="st32" points="1768.9,-67.3 1734.6,15.6 1817.5,-67.3 "/>
<polygon class="st32" points="1817.5,-67.3 1734.6,15.5 1783.1,15.5 "/>
<polygon class="st32" points="1783.1,15.5 1817.5,49.8 1817.5,-67.3 "/>
<polygon class="st32" points="1783.1,15.5 1734.6,15.5 1817.5,49.8 "/>
<polygon class="st31" points="1817.5,49.8 1734.6,15.5 1768.9,49.8 "/>
<polygon class="st33" points="1734.6,15.5 1734.6,132.7 1768.9,49.8 "/>
<polygon class="st33" points="1768.9,49.8 1734.6,132.7 1817.5,49.8 "/>
<polygon class="st31" points="1817.5,49.8 1734.6,132.6 1783.1,132.6 "/>
<polygon class="st32" points="1783.1,132.6 1817.5,166.9 1817.5,49.8 "/>
<polygon class="st33" points="1783.1,132.6 1734.6,132.6 1817.5,166.9 "/>
<polygon class="st31" points="1817.5,166.9 1734.6,132.6 1768.9,166.9 "/>
<polygon class="st30" points="1734.6,132.6 1734.6,249.8 1768.9,166.9 "/>
<polygon class="st33" points="1768.9,166.9 1734.6,249.8 1817.5,166.9 "/>
<polygon class="st33" points="1817.5,166.9 1734.6,249.7 1783.1,249.7 "/>
<polygon class="st32" points="1783.1,249.7 1817.5,284 1817.5,166.9 "/>
<polygon class="st31" points="1783.1,249.7 1734.6,249.7 1817.5,284 "/>
<polygon class="st33" points="1817.5,284 1734.6,249.7 1768.9,284 "/>
<polygon class="st30" points="1734.6,249.7 1734.6,366.9 1768.9,284 "/>
<polygon class="st33" points="1768.9,284 1734.6,366.9 1817.5,284 "/>
<polygon class="st33" points="1817.5,284 1734.6,366.8 1783.1,366.8 "/>
<polygon class="st32" points="1783.1,366.8 1817.5,401.1 1817.5,284 "/>
<polygon class="st33" points="1783.1,366.8 1734.6,366.8 1817.5,401.1 "/>
<polygon class="st31" points="1817.5,401.1 1734.6,366.8 1768.9,401.1 "/>
<polygon class="st30" points="1734.6,366.8 1734.6,484 1768.9,401.1 "/>
<polygon class="st31" points="1768.9,401.1 1734.6,484 1817.5,401.1 "/>
<polygon class="st31" points="1817.5,401.1 1734.6,483.9 1783.1,483.9 "/>
<polygon class="st32" points="1783.1,483.9 1817.5,518.2 1817.5,401.1 "/>
<polygon class="st34" points="1783.1,483.9 1734.6,483.9 1817.5,518.2 "/>
<polygon class="st31" points="1817.5,518.2 1734.6,483.9 1768.9,518.2 "/>
<polygon class="st31" points="1734.6,483.9 1734.6,601.1 1768.9,518.2 "/>
<polygon class="st32" points="1768.9,518.2 1734.6,601.1 1817.5,518.2 "/>
<polygon class="st32" points="1817.5,518.2 1734.6,601 1783.1,601 "/>
<polygon class="st35" points="1783.1,601 1817.5,635.3 1817.5,518.2 "/>
<polygon class="st32" points="1783.1,601 1734.6,601 1817.5,635.3 "/>
<polygon class="st32" points="1817.5,635.3 1734.6,601 1768.9,635.3 "/>
<polygon class="st32" points="1734.6,601 1734.6,718.2 1768.9,635.3 "/>
<polygon class="st32" points="1768.9,635.3 1734.6,718.2 1817.5,635.3 "/>
<polygon class="st35" points="1817.5,635.3 1734.6,718.1 1783.1,718.1 "/>
<polygon class="st35" points="1783.1,718.1 1817.5,752.4 1817.5,635.3 "/>
<polygon class="st35" points="1783.1,718.1 1734.6,718.1 1817.5,752.4 "/>
<polygon class="st32" points="1817.5,752.4 1734.6,718.1 1768.9,752.4 "/>
<polygon class="st32" points="1734.6,718.1 1734.6,835.3 1768.9,752.4 "/>
<polygon class="st32" points="1768.9,752.4 1734.6,835.3 1817.5,752.4 "/>
<polygon class="st36" points="1900.1,-150.2 1817.2,-67.4 1865.7,-67.4 "/>
<polygon class="st36" points="1865.7,-67.4 1900.1,-33.1 1900.1,-150.2 "/>
<polygon class="st36" points="1865.7,-67.4 1817.2,-67.4 1900.1,-33.1 "/>
<polygon class="st36" points="1900.1,-33.1 1817.2,-67.4 1851.5,-33.1 "/>
<polygon class="st35" points="1817.2,-67.4 1817.2,49.8 1851.5,-33.1 "/>
<polygon class="st36" points="1851.5,-33.1 1817.2,49.8 1900.1,-33.1 "/>
<polygon class="st35" points="1900.1,-33.1 1817.2,49.7 1865.7,49.7 "/>
<polygon class="st36" points="1865.7,49.7 1900.1,84 1900.1,-33.1 "/>
<polygon class="st35" points="1865.7,49.7 1817.2,49.7 1900.1,84 "/>
<polygon class="st35" points="1900.1,84 1817.2,49.7 1851.5,84 "/>
<polygon class="st35" points="1817.2,49.7 1817.2,166.9 1851.5,84 "/>
<polygon class="st35" points="1851.5,84 1817.2,166.9 1900.1,84 "/>
<polygon class="st35" points="1900.1,84 1817.2,166.8 1865.7,166.8 "/>
<polygon class="st36" points="1865.7,166.8 1900.1,201.1 1900.1,84 "/>
<polygon class="st35" points="1865.7,166.8 1817.2,166.8 1900.1,201.1 "/>
<polygon class="st35" points="1900.1,201.1 1817.2,166.8 1851.5,201.1 "/>
<polygon class="st32" points="1817.2,166.8 1817.2,284 1851.5,201.1 "/>
<polygon class="st35" points="1851.5,201.1 1817.2,284 1900.1,201.1 "/>
<polygon class="st35" points="1900.1,201.1 1817.2,283.9 1865.7,283.9 "/>
<polygon class="st36" points="1865.7,283.9 1900.1,318.2 1900.1,201.1 "/>
<polygon class="st35" points="1865.7,283.9 1817.2,283.9 1900.1,318.2 "/>
<polygon class="st35" points="1900.1,318.2 1817.2,283.9 1851.5,318.2 "/>
<polygon class="st32" points="1817.2,283.9 1817.2,401.1 1851.5,318.2 "/>
<polygon class="st35" points="1851.5,318.2 1817.2,401.1 1900.1,318.2 "/>
<polygon class="st35" points="1900.1,318.2 1817.2,401 1865.7,401 "/>
<polygon class="st36" points="1865.7,401 1900.1,435.3 1900.1,318.2 "/>
<polygon class="st35" points="1865.7,401 1817.2,401 1900.1,435.3 "/>
<polygon class="st35" points="1900.1,435.3 1817.2,401 1851.5,435.3 "/>
<polygon class="st35" points="1817.2,401 1817.2,518.2 1851.5,435.3 "/>
<polygon class="st35" points="1851.5,435.3 1817.2,518.2 1900.1,435.3 "/>
<polygon class="st35" points="1900.1,435.3 1817.2,518.1 1865.7,518.1 "/>
<polygon class="st36" points="1865.7,518.1 1900.1,552.4 1900.1,435.3 "/>
<polygon class="st36" points="1865.7,518.1 1817.2,518.1 1900.1,552.4 "/>
<polygon class="st36" points="1900.1,552.4 1817.2,518.1 1851.5,552.4 "/>
<polygon class="st35" points="1817.2,518.1 1817.2,635.3 1851.5,552.4 "/>
<polygon class="st36" points="1851.5,552.4 1817.2,635.3 1900.1,552.4 "/>
<polygon class="st36" points="1900.1,552.4 1817.2,635.2 1865.7,635.2 "/>
<polygon class="st37" points="1865.7,635.2 1900.1,669.5 1900.1,552.4 "/>
<polygon class="st36" points="1865.7,635.2 1817.2,635.2 1900.1,669.5 "/>
<polygon class="st36" points="1900.1,669.5 1817.2,635.2 1851.5,669.5 "/>
<polygon class="st36" points="1817.2,635.2 1817.2,752.4 1851.5,669.5 "/>
<polygon class="st36" points="1851.5,669.5 1817.2,752.4 1900.1,669.5 "/>
<polygon class="st36" points="1900.1,669.5 1817.2,752.3 1865.7,752.3 "/>
<polygon class="st37" points="1865.7,752.3 1900.1,786.6 1900.1,669.5 "/>
<polygon class="st36" points="1865.7,752.3 1817.2,752.3 1900.1,786.6 "/>
<polygon class="st36" points="1900.1,786.6 1817.2,752.3 1851.5,786.6 "/>
<polygon class="st36" points="1817.2,752.3 1817.2,869.5 1851.5,786.6 "/>
<polygon class="st36" points="1851.5,786.6 1817.2,869.5 1900.1,786.6 "/>
<polygon class="st37" points="1982.7,-116 1899.8,-33.2 1948.3,-33.2 "/>
<polygon class="st37" points="1948.3,-33.2 1982.7,1.1 1982.7,-116 "/>
<polygon class="st37" points="1948.3,-33.2 1899.8,-33.2 1982.7,1.1 "/>
<polygon class="st37" points="1982.7,1.1 1899.8,-33.2 1934.1,1.1 "/>
<polygon class="st37" points="1899.8,-33.2 1899.8,84 1934.1,1.1 "/>
<polygon class="st37" points="1934.1,1.1 1899.8,84 1982.7,1.1 "/>
<polygon class="st37" points="1982.7,1.1 1899.8,83.9 1948.3,83.9 "/>
<polygon class="st37" points="1948.3,83.9 1982.7,118.2 1982.7,1.1 "/>
<polygon class="st36" points="1948.3,83.9 1899.8,83.9 1982.7,118.2 "/>
<polygon class="st36" points="1982.7,118.2 1899.8,83.9 1934.1,118.2 "/>
<polygon class="st36" points="1899.8,83.9 1899.8,201.1 1934.1,118.2 "/>
<polygon class="st36" points="1934.1,118.2 1899.8,201.1 1982.7,118.2 "/>
<polygon class="st36" points="1982.7,118.2 1899.8,201 1948.3,201 "/>
<polygon class="st36" points="1948.3,201 1982.7,235.3 1982.7,118.2 "/>
<polygon class="st36" points="1948.3,201 1899.8,201 1982.7,235.3 "/>
<polygon class="st36" points="1982.7,235.3 1899.8,201 1934.1,235.3 "/>
<polygon class="st36" points="1899.8,201 1899.8,318.2 1934.1,235.3 "/>
<polygon class="st36" points="1934.1,235.3 1899.8,318.2 1982.7,235.3 "/>
<polygon class="st36" points="1982.7,235.3 1899.8,318.1 1948.3,318.1 "/>
<polygon class="st36" points="1948.3,318.1 1982.7,352.4 1982.7,235.3 "/>
<polygon class="st36" points="1948.3,318.1 1899.8,318.1 1982.7,352.4 "/>
<polygon class="st36" points="1982.7,352.4 1899.8,318.1 1934.1,352.4 "/>
<polygon class="st36" points="1899.8,318.1 1899.8,435.3 1934.1,352.4 "/>
<polygon class="st36" points="1934.1,352.4 1899.8,435.3 1982.7,352.4 "/>
<polygon class="st36" points="1982.7,352.4 1899.8,435.2 1948.3,435.2 "/>
<polygon class="st36" points="1948.3,435.2 1982.7,469.5 1982.7,352.4 "/>
<polygon class="st36" points="1948.3,435.2 1899.8,435.2 1982.7,469.5 "/>
<polygon class="st36" points="1982.7,469.5 1899.8,435.2 1934.1,469.5 "/>
<polygon class="st36" points="1899.8,435.2 1899.8,552.4 1934.1,469.5 "/>
<polygon class="st37" points="1934.1,469.5 1899.8,552.4 1982.7,469.5 "/>
<polygon class="st37" points="1982.7,469.5 1899.8,552.3 1948.3,552.3 "/>
<polygon class="st37" points="1948.3,552.3 1982.7,586.6 1982.7,469.5 "/>
<polygon class="st37" points="1948.3,552.3 1899.8,552.3 1982.7,586.6 "/>
<polygon class="st37" points="1982.7,586.6 1899.8,552.3 1934.1,586.6 "/>
<polygon class="st37" points="1899.8,552.3 1899.8,669.5 1934.1,586.6 "/>
<polygon class="st37" points="1934.1,586.6 1899.8,669.5 1982.7,586.6 "/>
<polygon class="st37" points="1982.7,586.6 1899.8,669.4 1948.3,669.4 "/>
<polygon class="st38" points="1948.3,669.4 1982.7,703.7 1982.7,586.6 "/>
<polygon class="st38" points="1948.3,669.4 1899.8,669.4 1982.7,703.7 "/>
<polygon class="st38" points="1982.7,703.7 1899.8,669.4 1934.1,703.7 "/>
<polygon class="st37" points="1899.8,669.4 1899.8,786.6 1934.1,703.7 "/>
<polygon class="st38" points="1934.1,703.7 1899.8,786.6 1982.7,703.7 "/>
<polygon class="st38" points="1982.7,703.7 1899.8,786.5 1948.3,786.5 "/>
<polygon class="st38" points="1948.3,786.5 1982.7,820.8 1982.7,703.7 "/>
<polygon class="st38" points="1948.3,786.5 1899.8,786.5 1982.7,820.8 "/>
<polygon class="st38" points="1982.7,820.8 1899.8,786.5 1934.1,820.8 "/>
<polygon class="st37" points="1899.8,786.5 1899.8,903.7 1934.1,820.8 "/>
<polygon class="st38" points="1934.1,820.8 1899.8,903.7 1982.7,820.8 "/>
<polygon class="st37" points="2065.3,-198.9 1982.4,-116.1 2030.9,-116.1 "/>
<polygon class="st37" points="2030.9,-116.1 2065.3,-81.8 2065.3,-198.9 "/>
<polygon class="st37" points="2030.9,-116.1 1982.4,-116.1 2065.3,-81.8 "/>
<polygon class="st37" points="2065.3,-81.8 1982.4,-116.1 2016.7,-81.8 "/>
<polygon class="st37" points="1982.4,-116.1 1982.4,1.1 2016.7,-81.8 "/>
<polygon class="st37" points="2016.7,-81.8 1982.4,1.1 2065.3,-81.8 "/>
<polygon class="st37" points="2065.3,-81.8 1982.4,1 2030.9,1 "/>
<polygon class="st37" points="2030.9,1 2065.3,35.3 2065.3,-81.8 "/>
<polygon class="st37" points="2030.9,1 1982.4,1 2065.3,35.3 "/>
<polygon class="st37" points="2065.3,35.3 1982.4,1 2016.7,35.3 "/>
<polygon class="st37" points="1982.4,1 1982.4,118.2 2016.7,35.3 "/>
<polygon class="st37" points="2016.7,35.3 1982.4,118.2 2065.3,35.3 "/>
<polygon class="st36" points="2065.3,35.3 1982.4,118.1 2030.9,118.1 "/>
<polygon class="st36" points="2030.9,118.1 2065.3,152.4 2065.3,35.3 "/>
<polygon class="st36" points="2030.9,118.1 1982.4,118.1 2065.3,152.4 "/>
<polygon class="st36" points="2065.3,152.4 1982.4,118.1 2016.7,152.4 "/>
<polygon class="st36" points="1982.4,118.1 1982.4,235.3 2016.7,152.4 "/>
<polygon class="st36" points="2016.7,152.4 1982.4,235.3 2065.3,152.4 "/>
<polygon class="st36" points="2065.3,152.4 1982.4,235.2 2030.9,235.2 "/>
<polygon class="st36" points="2030.9,235.2 2065.3,269.5 2065.3,152.4 "/>
<polygon class="st36" points="2030.9,235.2 1982.4,235.2 2065.3,269.5 "/>
<polygon class="st36" points="2065.3,269.5 1982.4,235.2 2016.7,269.5 "/>
<polygon class="st36" points="1982.4,235.2 1982.4,352.4 2016.7,269.5 "/>
<polygon class="st36" points="2016.7,269.5 1982.4,352.4 2065.3,269.5 "/>
<polygon class="st36" points="2065.3,269.5 1982.4,352.3 2030.9,352.3 "/>
<polygon class="st36" points="2030.9,352.3 2065.3,386.6 2065.3,269.5 "/>
<polygon class="st36" points="2030.9,352.3 1982.4,352.3 2065.3,386.6 "/>
<polygon class="st36" points="2065.3,386.6 1982.4,352.3 2016.7,386.6 "/>
<polygon class="st36" points="1982.4,352.3 1982.4,469.5 2016.7,386.6 "/>
<polygon class="st36" points="2016.7,386.6 1982.4,469.5 2065.3,386.6 "/>
<polygon class="st36" points="2065.3,386.6 1982.4,469.4 2030.9,469.4 "/>
<polygon class="st36" points="2030.9,469.4 2065.3,503.7 2065.3,386.6 "/>
<polygon class="st37" points="2030.9,469.4 1982.4,469.4 2065.3,503.7 "/>
<polygon class="st37" points="2065.3,503.7 1982.4,469.4 2016.7,503.7 "/>
<polygon class="st37" points="1982.4,469.4 1982.4,586.6 2016.7,503.7 "/>
<polygon class="st37" points="2016.7,503.7 1982.4,586.6 2065.3,503.7 "/>
<polygon class="st37" points="2065.3,503.7 1982.4,586.5 2030.9,586.5 "/>
<polygon class="st37" points="2030.9,586.5 2065.3,620.8 2065.3,503.7 "/>
<polygon class="st37" points="2030.9,586.5 1982.4,586.5 2065.3,620.8 "/>
<polygon class="st37" points="2065.3,620.8 1982.4,586.5 2016.7,620.8 "/>
<polygon class="st37" points="1982.4,586.5 1982.4,703.7 2016.7,620.8 "/>
<polygon class="st38" points="2016.7,620.8 1982.4,703.7 2065.3,620.8 "/>
<polygon class="st38" points="2065.3,620.8 1982.4,703.6 2030.9,703.6 "/>
<polygon class="st38" points="2030.9,703.6 2065.3,737.9 2065.3,620.8 "/>
<polygon class="st38" points="2030.9,703.6 1982.4,703.6 2065.3,737.9 "/>
<polygon class="st38" points="2065.3,737.9 1982.4,703.6 2016.7,737.9 "/>
<polygon class="st38" points="1982.4,703.6 1982.4,820.8 2016.7,737.9 "/>
<polygon class="st38" points="2016.7,737.9 1982.4,820.8 2065.3,737.9 "/>
<path class="st0" d="z"/>
</svg>
