<?xml version="1.0" encoding="utf-8"?>
<!-- Generator: Adobe Illustrator 24.0.2, SVG Export Plug-In . SVG Version: 6.00 Build 0)  -->
<svg version="1.1" id="Layer_1" xmlns="http://www.w3.org/2000/svg" xmlns:xlink="http://www.w3.org/1999/xlink" x="0px" y="0px"
	 viewBox="0 0 492 155" style="enable-background:new 0 0 492 155;" xml:space="preserve">
<style type="text/css">
	.st0{fill:none;stroke:#FAFAFA;stroke-width:11.4286;stroke-linecap:round;stroke-linejoin:round;}
	.st1{fill:#FFFFFF;}
	.st2{opacity:0.2008;fill-rule:evenodd;clip-rule:evenodd;fill:#FAFAFA;enable-background:new    ;}
</style>
<title>Group</title>
<desc>Created with Sketch.</desc>
<g id="Scaled">
	<g id="Rivet-Logo-_x40_-500" transform="translate(-19.000000, -71.000000)">
		<g id="Group" transform="translate(11.000000, 70.000000)">
			<path id="Combined-Shape" class="st0" d="M137.1,7.1V150 M91.4,112.9h-60 M91.4,112.9l45.7,37.1 M137.1,7.1L31.4,112.9"/>
			<path id="Rivet" class="st1" d="M203.1,126.8V88h13.4c3.5,0,6.4,0.6,8.6,1.8c2.3,1.2,4.2,3.2,5.8,6.2l0,0l16.6,30.9h19.2
				l-16.2-29.6c-3.1-5.9-7.2-9.5-12.3-10.8c7.6-1.5,13.5-4.6,17.6-9.4c4.2-4.8,6.2-10.9,6.2-18.3c0-9.2-2.9-16.3-8.6-21.2
				s-14.1-7.3-25-7.3l0,0h-42.8v96.7H203.1z M226,74.4h-23V43.8h23c6.7,0,11.6,1.2,14.7,3.6c3.1,2.4,4.7,6.3,4.7,11.6
				c0,5.2-1.6,9.1-4.7,11.6C237.6,73.1,232.7,74.4,226,74.4L226,74.4z M297.9,45.4V28.6h-18.9v16.9H297.9z M297,126.8V59.7h-17.1
				v67.1H297z M349.6,126.8L379,59.8h-16.9l-19.5,47.3l-18.9-47.3h-18.1l29.1,66.9H349.6z M418.3,127.9c4.8,0,9.5-0.8,14.2-2.3
				c4.7-1.6,8.6-3.6,11.7-6.2l0,0l-4.9-11.8c-6.1,4.8-12.9,7.1-20.3,7.1c-5.9,0-10.5-1.5-13.7-4.5c-3.2-3-5.1-7.6-5.6-13.9l0,0h45.7
				v-4.8c0-10.4-2.7-18.6-8-24.5s-12.6-8.9-21.9-8.9c-6.3,0-12,1.5-16.9,4.4c-5,2.9-8.8,7-11.6,12.3s-4.1,11.4-4.1,18.2
				c0,10.8,3.2,19.3,9.5,25.5C398.7,124.8,407.3,127.9,418.3,127.9z M430.7,87.1h-31c0.6-5.5,2.4-9.7,5.1-12.6
				c2.8-2.9,6.5-4.4,11-4.4c4.6,0,8.1,1.4,10.7,4.3C429.1,77.3,430.5,81.6,430.7,87.1L430.7,87.1z M491,127.7c2.3,0,4.8-0.1,7.5-0.4
				l0,0l0.8-12.8c-2.2,0.3-4.3,0.4-6.3,0.4c-8.3,0-12.5-4.5-12.5-13.4l0,0V72.6h17.7V59.7h-17.7v-20h-17.1v20h-12.9v12.9h12.9v29.2
				c0,8.6,2.2,15.1,6.7,19.4C474.6,125.6,481.5,127.7,491,127.7z"/>
			<path id="Path-2" class="st2" d="M9.6,108.7l97.7-98.8c2.2-2.2,5.8-2.3,8.1,0c1.1,1.1,1.7,2.5,1.7,4.1v134c0,3.2-2.6,5.7-5.7,5.7
				c-1.3,0-2.6-0.5-3.6-1.3l-39.7-32.6c-1-0.8-2.3-1.3-3.6-1.3H13.7c-3.2,0-5.7-2.6-5.7-5.7C8,111.2,8.6,109.7,9.6,108.7z"/>
		</g>
	</g>
</g>
</svg>
