<?xml version="1.0" encoding="UTF-8"?>
<svg width="1479px" height="155px" viewBox="0 0 1479 155" version="1.1" xmlns="http://www.w3.org/2000/svg" xmlns:xlink="http://www.w3.org/1999/xlink">
    <!-- Generator: Sketch 62 (91390) - https://sketch.com -->
    <title>Group 2</title>
    <desc>Created with Sketch.</desc>
    <g id="Scaled" stroke="none" stroke-width="1" fill="none" fill-rule="evenodd">
        <g id="Final-(white)" transform="translate(-17.000000, -71.000000)" fill="#FFFFFF">
            <g id="Group-2" transform="translate(11.000000, 70.000000)">
                <path d="M203.014,127 L203.014,87.946 L216.538,87.946 C220.034,87.946 222.932,88.544 225.232,89.74 C227.532,90.936 229.464,93.006 231.028,95.95 L231.028,95.95 L247.726,127 L267.046,127 L250.762,97.192 C247.634,91.304 243.494,87.67 238.342,86.29 C245.978,84.818 251.889,81.667 256.075,76.837 C260.261,72.007 262.354,65.866 262.354,58.414 C262.354,49.122 259.479,42.015 253.729,37.093 C247.979,32.171 239.584,29.71 228.544,29.71 L228.544,29.71 L185.488,29.71 L185.488,127 L203.014,127 Z M226.06,74.284 L202.876,74.284 L202.876,43.51 L226.06,43.51 C232.776,43.51 237.698,44.729 240.826,47.167 C243.954,49.605 245.518,53.492 245.518,58.828 C245.518,64.072 243.954,67.959 240.826,70.489 C237.698,73.019 232.776,74.284 226.06,74.284 L226.06,74.284 Z M297.958,45.166 L297.958,28.192 L278.914,28.192 L278.914,45.166 L297.958,45.166 Z M297.13,127 L297.13,59.518 L279.88,59.518 L279.88,127 L297.13,127 Z M349.708,127 L379.24,59.656 L362.266,59.656 L342.67,107.266 L323.626,59.656 L305.41,59.656 L334.666,127 L349.708,127 Z M419.536,128.104 C424.32,128.104 429.081,127.322 433.819,125.758 C438.557,124.194 442.49,122.124 445.618,119.548 L445.618,119.548 L440.65,107.68 C434.486,112.464 427.678,114.856 420.226,114.856 C414.246,114.856 409.646,113.338 406.426,110.302 C403.206,107.266 401.32,102.62 400.768,96.364 L400.768,96.364 L446.722,96.364 L446.722,91.534 C446.722,81.046 444.031,72.812 438.649,66.832 C433.267,60.852 425.93,57.862 416.638,57.862 C410.29,57.862 404.609,59.334 399.595,62.278 C394.581,65.222 390.694,69.362 387.934,74.698 C385.174,80.034 383.794,86.152 383.794,93.052 C383.794,103.908 386.991,112.464 393.385,118.72 C399.779,124.976 408.496,128.104 419.536,128.104 Z M431.956,87.118 L400.768,87.118 C401.412,81.598 403.137,77.366 405.943,74.422 C408.749,71.478 412.452,70.006 417.052,70.006 C421.652,70.006 425.24,71.455 427.816,74.353 C430.392,77.251 431.772,81.506 431.956,87.118 L431.956,87.118 Z M493.228,127.966 C495.528,127.966 498.058,127.828 500.818,127.552 L500.818,127.552 L501.646,114.718 C499.438,114.994 497.322,115.132 495.298,115.132 C486.926,115.132 482.74,110.624 482.74,101.608 L482.74,101.608 L482.74,72.49 L500.542,72.49 L500.542,59.518 L482.74,59.518 L482.74,39.37 L465.49,39.37 L465.49,59.518 L452.518,59.518 L452.518,72.49 L465.49,72.49 L465.49,101.884 C465.49,110.532 467.744,117.041 472.252,121.411 C476.76,125.781 483.752,127.966 493.228,127.966 Z M586.516,127 C602.432,127 614.783,122.722 623.569,114.166 C632.355,105.61 636.748,93.65 636.748,78.286 C636.748,62.922 632.355,50.985 623.569,42.475 C614.783,33.965 602.432,29.71 586.516,29.71 L586.516,29.71 L550.636,29.71 L550.636,127 L586.516,127 Z M585.412,112.51 L568.438,112.51 L568.438,44.2 L585.412,44.2 C607.768,44.2 618.946,55.562 618.946,78.286 C618.946,101.102 607.768,112.51 585.412,112.51 L585.412,112.51 Z M685.186,128.104 C689.97,128.104 694.731,127.322 699.469,125.758 C704.207,124.194 708.14,122.124 711.268,119.548 L711.268,119.548 L706.3,107.68 C700.136,112.464 693.328,114.856 685.876,114.856 C679.896,114.856 675.296,113.338 672.076,110.302 C668.856,107.266 666.97,102.62 666.418,96.364 L666.418,96.364 L712.372,96.364 L712.372,91.534 C712.372,81.046 709.681,72.812 704.299,66.832 C698.917,60.852 691.58,57.862 682.288,57.862 C675.94,57.862 670.259,59.334 665.245,62.278 C660.231,65.222 656.344,69.362 653.584,74.698 C650.824,80.034 649.444,86.152 649.444,93.052 C649.444,103.908 652.641,112.464 659.035,118.72 C665.429,124.976 674.146,128.104 685.186,128.104 Z M697.606,87.118 L666.418,87.118 C667.062,81.598 668.787,77.366 671.593,74.422 C674.399,71.478 678.102,70.006 682.702,70.006 C687.302,70.006 690.89,71.455 693.466,74.353 C696.042,77.251 697.422,81.506 697.606,87.118 L697.606,87.118 Z M751.288,128.104 C759.936,128.104 766.79,126.264 771.85,122.584 C776.91,118.904 779.44,113.936 779.44,107.68 C779.44,102.528 777.876,98.365 774.748,95.191 C771.62,92.017 766.698,89.694 759.982,88.222 L759.982,88.222 L748.528,85.6 C745.584,84.956 743.445,84.036 742.111,82.84 C740.777,81.644 740.11,80.126 740.11,78.286 C740.11,75.802 741.168,73.87 743.284,72.49 C745.4,71.11 748.344,70.42 752.116,70.42 C759.108,70.42 766.1,72.95 773.092,78.01 L773.092,78.01 L777.922,66.28 C774.518,63.612 770.585,61.542 766.123,60.07 C761.661,58.598 757.038,57.862 752.254,57.862 C746.734,57.862 741.881,58.736 737.695,60.484 C733.509,62.232 730.243,64.693 727.897,67.867 C725.551,71.041 724.378,74.698 724.378,78.838 C724.378,83.806 725.896,87.854 728.932,90.982 C731.968,94.11 736.614,96.364 742.87,97.744 L742.87,97.744 L753.91,100.228 C757.59,101.148 760.143,102.16 761.569,103.264 C762.995,104.368 763.708,105.932 763.708,107.956 C763.708,110.348 762.673,112.188 760.603,113.476 C758.533,114.764 755.52,115.408 751.564,115.408 C742.272,115.408 734.038,112.786 726.862,107.542 L726.862,107.542 L722.032,119.548 C725.528,122.308 729.783,124.424 734.797,125.896 C739.811,127.368 745.308,128.104 751.288,128.104 Z M811.456,45.166 L811.456,28.192 L792.412,28.192 L792.412,45.166 L811.456,45.166 Z M810.628,127 L810.628,59.518 L793.378,59.518 L793.378,127 L810.628,127 Z M859.48,152.944 C870.888,152.944 879.513,150.23 885.355,144.802 C891.197,139.374 894.118,131.37 894.118,120.79 L894.118,120.79 L894.118,59.518 L877.006,59.518 L877.006,69.73 C874.982,65.958 872.038,63.037 868.174,60.967 C864.31,58.897 859.894,57.862 854.926,57.862 C849.038,57.862 843.794,59.265 839.194,62.071 C834.594,64.877 831.029,68.833 828.499,73.939 C825.969,79.045 824.704,84.91 824.704,91.534 C824.704,98.158 825.992,104 828.568,109.06 C831.144,114.12 834.709,118.053 839.263,120.859 C843.817,123.665 849.038,125.068 854.926,125.068 C859.894,125.068 864.31,124.033 868.174,121.963 C872.038,119.893 874.982,116.972 877.006,113.2 L877.006,113.2 L877.006,122.032 C877.006,133.808 871.026,139.696 859.066,139.696 C850.142,139.696 841.494,137.166 833.122,132.106 L833.122,132.106 L828.292,144.25 C832.34,147.01 837.078,149.149 842.506,150.667 C847.934,152.185 853.592,152.944 859.48,152.944 Z M859.48,111.682 C854.052,111.682 849.774,109.865 846.646,106.231 C843.518,102.597 841.954,97.698 841.954,91.534 C841.954,85.186 843.518,80.218 846.646,76.63 C849.774,73.042 854.052,71.248 859.48,71.248 C865,71.248 869.301,73.042 872.383,76.63 C875.465,80.218 877.006,85.186 877.006,91.534 C877.006,97.79 875.465,102.712 872.383,106.3 C869.301,109.888 865,111.682 859.48,111.682 Z M929.17,127 L929.17,88.774 C929.17,83.53 930.665,79.344 933.655,76.216 C936.645,73.088 940.624,71.524 945.592,71.524 C949.824,71.524 952.929,72.72 954.907,75.112 C956.885,77.504 957.874,81.322 957.874,86.566 L957.874,86.566 L957.874,127 L975.124,127 L975.124,85.6 C975.124,76.308 973.146,69.362 969.19,64.762 C965.234,60.162 959.208,57.862 951.112,57.862 C946.236,57.862 941.866,58.874 938.002,60.898 C934.138,62.922 931.056,65.82 928.756,69.592 L928.756,69.592 L928.756,59.518 L911.92,59.518 L911.92,127 L929.17,127 Z M1064.548,128.242 C1072.46,128.242 1079.337,127.069 1085.179,124.723 C1091.021,122.377 1095.483,119.019 1098.565,114.649 C1101.647,110.279 1103.188,105.196 1103.188,99.4 C1103.188,94.064 1101.831,89.648 1099.117,86.152 C1096.403,82.656 1092.493,79.781 1087.387,77.527 C1082.281,75.273 1075.634,73.226 1067.446,71.386 C1059.718,69.638 1054.244,67.752 1051.024,65.728 C1047.804,63.704 1046.194,60.806 1046.194,57.034 C1046.194,52.526 1048.011,49.007 1051.645,46.477 C1055.279,43.947 1060.224,42.682 1066.48,42.682 C1076.968,42.682 1086.536,46.132 1095.184,53.032 L1095.184,53.032 L1101.118,40.06 C1097.162,36.472 1092.102,33.643 1085.938,31.573 C1079.774,29.503 1073.288,28.468 1066.48,28.468 C1059.028,28.468 1052.45,29.733 1046.746,32.263 C1041.042,34.793 1036.626,38.312 1033.498,42.82 C1030.37,47.328 1028.806,52.434 1028.806,58.138 C1028.806,63.658 1030.094,68.212 1032.67,71.8 C1035.246,75.388 1039.064,78.332 1044.124,80.632 C1049.184,82.932 1055.762,84.956 1063.858,86.704 C1071.678,88.452 1077.267,90.292 1080.625,92.224 C1083.983,94.156 1085.662,96.962 1085.662,100.642 C1085.662,104.874 1083.845,108.163 1080.211,110.509 C1076.577,112.855 1071.402,114.028 1064.686,114.028 C1058.614,114.028 1052.979,113.2 1047.781,111.544 C1042.583,109.888 1037.638,107.266 1032.946,103.678 L1032.946,103.678 L1027.012,116.65 C1031.52,120.33 1037.04,123.182 1043.572,125.206 C1050.104,127.23 1057.096,128.242 1064.548,128.242 Z M1141.828,151.84 L1182.4,59.656 L1165.426,59.656 L1145.83,107.266 L1126.786,59.656 L1108.57,59.656 L1136.722,124.378 L1124.44,151.84 L1141.828,151.84 Z M1215.52,128.104 C1224.168,128.104 1231.022,126.264 1236.082,122.584 C1241.142,118.904 1243.672,113.936 1243.672,107.68 C1243.672,102.528 1242.108,98.365 1238.98,95.191 C1235.852,92.017 1230.93,89.694 1224.214,88.222 L1224.214,88.222 L1212.76,85.6 C1209.816,84.956 1207.677,84.036 1206.343,82.84 C1205.009,81.644 1204.342,80.126 1204.342,78.286 C1204.342,75.802 1205.4,73.87 1207.516,72.49 C1209.632,71.11 1212.576,70.42 1216.348,70.42 C1223.34,70.42 1230.332,72.95 1237.324,78.01 L1237.324,78.01 L1242.154,66.28 C1238.75,63.612 1234.817,61.542 1230.355,60.07 C1225.893,58.598 1221.27,57.862 1216.486,57.862 C1210.966,57.862 1206.113,58.736 1201.927,60.484 C1197.741,62.232 1194.475,64.693 1192.129,67.867 C1189.783,71.041 1188.61,74.698 1188.61,78.838 C1188.61,83.806 1190.128,87.854 1193.164,90.982 C1196.2,94.11 1200.846,96.364 1207.102,97.744 L1207.102,97.744 L1218.142,100.228 C1221.822,101.148 1224.375,102.16 1225.801,103.264 C1227.227,104.368 1227.94,105.932 1227.94,107.956 C1227.94,110.348 1226.905,112.188 1224.835,113.476 C1222.765,114.764 1219.752,115.408 1215.796,115.408 C1206.504,115.408 1198.27,112.786 1191.094,107.542 L1191.094,107.542 L1186.264,119.548 C1189.76,122.308 1194.015,124.424 1199.029,125.896 C1204.043,127.368 1209.54,128.104 1215.52,128.104 Z M1290.04,127.966 C1292.34,127.966 1294.87,127.828 1297.63,127.552 L1297.63,127.552 L1298.458,114.718 C1296.25,114.994 1294.134,115.132 1292.11,115.132 C1283.738,115.132 1279.552,110.624 1279.552,101.608 L1279.552,101.608 L1279.552,72.49 L1297.354,72.49 L1297.354,59.518 L1279.552,59.518 L1279.552,39.37 L1262.302,39.37 L1262.302,59.518 L1249.33,59.518 L1249.33,72.49 L1262.302,72.49 L1262.302,101.884 C1262.302,110.532 1264.556,117.041 1269.064,121.411 C1273.572,125.781 1280.564,127.966 1290.04,127.966 Z M1340.548,128.104 C1345.332,128.104 1350.093,127.322 1354.831,125.758 C1359.569,124.194 1363.502,122.124 1366.63,119.548 L1366.63,119.548 L1361.662,107.68 C1355.498,112.464 1348.69,114.856 1341.238,114.856 C1335.258,114.856 1330.658,113.338 1327.438,110.302 C1324.218,107.266 1322.332,102.62 1321.78,96.364 L1321.78,96.364 L1367.734,96.364 L1367.734,91.534 C1367.734,81.046 1365.043,72.812 1359.661,66.832 C1354.279,60.852 1346.942,57.862 1337.65,57.862 C1331.302,57.862 1325.621,59.334 1320.607,62.278 C1315.593,65.222 1311.706,69.362 1308.946,74.698 C1306.186,80.034 1304.806,86.152 1304.806,93.052 C1304.806,103.908 1308.003,112.464 1314.397,118.72 C1320.791,124.976 1329.508,128.104 1340.548,128.104 Z M1352.968,87.118 L1321.78,87.118 C1322.424,81.598 1324.149,77.366 1326.955,74.422 C1329.761,71.478 1333.464,70.006 1338.064,70.006 C1342.664,70.006 1346.252,71.455 1348.828,74.353 C1351.404,77.251 1352.784,81.506 1352.968,87.118 L1352.968,87.118 Z M1399.06,127 L1399.06,89.326 C1399.06,83.714 1400.348,79.344 1402.924,76.216 C1405.5,73.088 1409.042,71.524 1413.55,71.524 C1417.506,71.524 1420.335,72.697 1422.037,75.043 C1423.739,77.389 1424.59,81.138 1424.59,86.29 L1424.59,86.29 L1424.59,127 L1441.84,127 L1441.84,89.326 C1441.84,83.714 1443.128,79.344 1445.704,76.216 C1448.28,73.088 1451.868,71.524 1456.468,71.524 C1460.332,71.524 1463.138,72.697 1464.886,75.043 C1466.634,77.389 1467.508,81.138 1467.508,86.29 L1467.508,86.29 L1467.508,127 L1484.758,127 L1484.758,85.6 C1484.758,76.216 1482.872,69.247 1479.1,64.693 C1475.328,60.139 1469.624,57.862 1461.988,57.862 C1457.112,57.862 1452.696,58.989 1448.74,61.243 C1444.784,63.497 1441.748,66.602 1439.632,70.558 C1436.32,62.094 1429.558,57.862 1419.346,57.862 C1414.746,57.862 1410.652,58.805 1407.064,60.691 C1403.476,62.577 1400.67,65.36 1398.646,69.04 L1398.646,69.04 L1398.646,59.518 L1381.81,59.518 L1381.81,127 L1399.06,127 Z" id="RivetDesignSystem" fill-rule="nonzero"></path>
                <g id="Group" stroke="#FFFFFF">
                    <path d="M137.142857,7.14285714 L137.142857,150 M91.4285714,112.857143 L31.4285714,112.857143 M91.4285714,112.857143 L137.142857,150 M137.142857,7.14285714 L31.4285714,112.857143" id="Combined-Shape" stroke-width="11.4285714" stroke-linecap="round" stroke-linejoin="round"></path>
                    <path d="M9.62992748,108.666727 L107.366454,9.88132114 C109.586079,7.63787536 113.204113,7.61856514 115.447559,9.83819055 C116.532414,10.9115271 117.142857,12.3742146 117.142857,13.9003085 L117.142857,147.913108 C117.142857,151.06902 114.584484,153.627393 111.428571,153.627393 C110.105907,153.627393 108.824202,153.168558 107.80204,152.329139 L68.0673724,119.698254 C67.0452104,118.858835 65.7635052,118.4 64.4408412,118.4 L13.6920454,118.4 C10.5361326,118.4 7.9777597,115.841627 7.9777597,112.685714 C7.9777597,111.180757 8.5714567,109.736557 9.62992748,108.666727 Z" id="Path-2" stroke-width="2.85714286" opacity="0.200804"></path>
                </g>
            </g>
        </g>
    </g>
</svg>